<?xml version="1.0" standalone="no"?>
<!DOCTYPE svg PUBLIC "-//W3C//DTD SVG 20010904//EN"
 "http://www.w3.org/TR/2001/REC-SVG-20010904/DTD/svg10.dtd">
<svg version="1.0" xmlns="http://www.w3.org/2000/svg"
 width="1280.000000pt" height="1280.000000pt" viewBox="0 0 1280.000000 1280.000000"
 preserveAspectRatio="xMidYMid meet">
<metadata>
Created by potrace 1.15, written by Peter Selinger 2001-2017
</metadata>
<g transform="translate(0.000000,1280.000000) scale(0.100000,-0.100000)"
fill="#000000" stroke="none">
<path d="M3806 10798 c-49 -353 -105 -603 -280 -1238 -107 -388 -470 -1839
-601 -2400 -146 -626 -231 -937 -366 -1342 -108 -326 -290 -754 -316 -744 -68
26 -481 102 -762 140 -162 21 -166 21 -300 4 -244 -31 -359 -83 -482 -216 -80
-87 -130 -183 -165 -318 -22 -85 -24 -112 -19 -189 13 -180 53 -341 113 -460
98 -196 298 -385 487 -460 127 -51 369 -46 535 10 171 58 306 150 485 330 150
150 267 295 402 498 57 86 110 157 117 157 49 0 629 -176 881 -267 465 -168
827 -323 1495 -640 296 -141 374 -173 417 -173 31 0 63 34 63 67 0 36 -34 88
-59 89 -29 2 -102 42 -294 163 -729 458 -1409 789 -2157 1048 -117 40 -184 68
-182 76 2 7 33 82 69 167 220 519 421 1085 654 1850 145 474 238 806 558 1985
55 204 135 487 177 630 l76 260 5 156 c5 126 2 172 -12 234 -49 222 -263 476
-502 599 l-32 16 -5 -32z m-1931 -6068 c95 -11 165 -28 165 -41 0 -15 -130
-166 -201 -235 -130 -123 -294 -222 -421 -253 -84 -20 -186 -14 -247 14 -109
51 -258 179 -300 259 -60 111 184 221 579 259 82 8 342 6 425 -3z"/>
<path d="M8136 8683 c-70 -256 -118 -403 -201 -613 -182 -463 -323 -1026 -395
-1580 -47 -372 -61 -737 -36 -965 44 -391 116 -652 234 -849 52 -88 173 -218
242 -261 105 -66 281 -99 405 -76 217 40 436 270 640 672 135 265 258 603 319
872 l6 27 41 -26 c62 -39 121 -61 206 -79 43 -9 79 -18 82 -21 2 -2 10 -59 18
-126 38 -339 124 -670 228 -879 49 -96 146 -236 207 -298 153 -156 337 -207
605 -167 275 41 457 138 689 370 202 202 343 401 480 676 86 172 129 287 190
498 63 223 63 223 23 255 -39 30 -63 23 -72 -22 -11 -51 -106 -281 -154 -371
-117 -219 -296 -458 -444 -592 -248 -225 -441 -311 -704 -312 -189 0 -293 39
-411 158 -166 167 -238 406 -238 791 -1 176 9 292 35 422 l10 52 41 -39 c110
-106 303 -156 498 -130 344 46 609 223 783 525 136 234 197 497 197 848 0 281
-20 391 -101 556 -43 87 -64 116 -133 186 -139 138 -274 190 -501 190 -137 0
-189 -13 -295 -75 -340 -200 -662 -750 -840 -1435 -70 -270 -104 -504 -113
-778 -3 -70 -7 -130 -9 -133 -9 -8 -136 42 -194 77 -89 54 -87 48 -59 172 83
365 174 870 199 1102 51 462 41 957 -20 1078 -63 125 -148 148 -250 67 -123
-99 -271 -368 -344 -626 -74 -264 -100 -454 -100 -724 -1 -362 54 -621 182
-872 l49 -97 -81 -206 c-179 -457 -290 -655 -470 -837 -97 -98 -172 -141 -266
-153 -166 -20 -263 73 -310 299 -24 113 -33 302 -23 476 11 199 30 331 76 530
66 287 118 451 318 985 189 508 228 641 240 835 5 78 3 124 -8 177 -23 107
-106 264 -215 408 -48 62 -191 215 -202 215 -3 0 -28 -80 -54 -177z m1263
-772 c30 -30 41 -83 48 -221 7 -145 -10 -385 -38 -550 -18 -106 -109 -468
-177 -705 l-29 -100 -21 70 c-41 137 -72 284 -82 400 -33 348 109 1023 232
1110 29 20 44 19 67 -4z m1530 -531 c52 -6 91 -16 100 -25 38 -37 2 -258 -69
-428 -78 -187 -223 -353 -375 -428 -71 -35 -94 -42 -166 -46 -60 -4 -102 -1
-148 11 -36 9 -66 18 -68 20 -11 11 79 244 147 381 119 241 207 364 324 454
56 43 113 70 151 70 11 1 58 -4 104 -9z"/>
<path d="M4592 8650 c-454 -119 -751 -712 -753 -1505 -1 -280 34 -473 121
-682 117 -280 311 -509 725 -855 332 -278 528 -490 717 -778 91 -138 194 -334
226 -429 l18 -54 23 64 c49 134 161 331 299 526 187 264 399 490 705 752 381
327 552 536 663 811 84 206 114 377 114 650 0 612 -178 1107 -484 1346 -363
285 -808 163 -1111 -304 -58 -91 -133 -247 -178 -370 l-34 -94 -32 94 c-102
288 -266 542 -440 680 -184 147 -387 198 -579 148z"/>
</g>
</svg>
