<?xml version="1.0" standalone="no"?>
<!DOCTYPE svg PUBLIC "-//W3C//DTD SVG 20010904//EN"
 "http://www.w3.org/TR/2001/REC-SVG-20010904/DTD/svg10.dtd">
<svg version="1.0" xmlns="http://www.w3.org/2000/svg"
 width="1280.000000pt" height="1280.000000pt" viewBox="0 0 1280.000000 1280.000000"
 preserveAspectRatio="xMidYMid meet">
<metadata>
Created by potrace 1.15, written by Peter Selinger 2001-2017
</metadata>
<g transform="translate(0.000000,1280.000000) scale(0.100000,-0.100000)"
fill="#000000" stroke="none">
<path d="M3695 10603 c-16 -2 -88 -10 -160 -18 -125 -14 -321 -52 -312 -61 3
-3 125 6 273 20 147 14 270 24 271 22 12 -11 -257 -62 -527 -100 -233 -32
-329 -49 -368 -66 -29 -12 -51 -25 -48 -27 2 -2 84 7 182 21 97 15 179 24 181
22 5 -5 -482 -126 -509 -126 -36 0 -364 -220 -340 -228 9 -3 441 62 492 74 14
3 22 3 19 0 -13 -13 -559 -166 -592 -166 -26 0 -45 -10 -81 -41 -26 -23 -45
-43 -43 -45 2 -2 29 5 59 15 57 20 259 64 264 58 2 -2 -77 -25 -176 -51 l-180
-48 -56 -64 c-30 -35 -50 -64 -42 -64 45 0 328 58 534 109 221 55 541 118 551
108 10 -10 -208 -76 -637 -192 -256 -70 -488 -133 -517 -141 -43 -13 -58 -23
-85 -62 -57 -79 -56 -76 -7 -69 l44 6 -53 -17 c-45 -14 -84 -45 -70 -56 1 -2
118 26 258 61 177 45 318 73 460 93 113 16 219 32 235 34 74 12 -39 -21 -510
-150 -275 -75 -505 -140 -511 -145 -14 -11 -67 -109 -62 -114 2 -2 33 0 68 5
109 15 712 71 716 67 13 -13 -298 -72 -541 -103 -168 -21 -283 -40 -287 -47
-12 -19 -9 -27 10 -28 11 -1 8 -3 -8 -8 -19 -5 -33 -27 -64 -94 -22 -48 -38
-89 -35 -91 2 -2 83 18 178 45 96 27 179 48 184 46 6 -2 -73 -27 -174 -56
-101 -29 -189 -54 -195 -56 -14 -4 -25 -45 -12 -45 12 0 723 169 930 221 86
21 161 39 165 38 14 0 -327 -118 -477 -164 -111 -33 -204 -53 -392 -81 l-247
-38 -10 -28 c-8 -23 -7 -28 7 -29 13 0 11 -3 -5 -9 -16 -6 -27 -26 -39 -67 -9
-32 -19 -64 -22 -72 -4 -12 9 -13 81 -7 48 4 87 5 87 3 0 -3 -41 -15 -91 -27
-72 -18 -92 -27 -99 -44 -4 -12 -3 -24 2 -27 5 -3 3 -9 -6 -12 -9 -4 -16 -15
-16 -26 0 -19 2 -19 73 5 99 34 351 107 497 144 96 24 177 35 386 53 145 12
260 20 256 16 -4 -3 -174 -54 -378 -113 -355 -102 -382 -108 -595 -136 -123
-17 -229 -30 -236 -30 -17 0 -28 -29 -48 -127 -9 -43 -18 -88 -21 -100 -5 -20
-4 -21 35 -12 22 5 292 45 600 89 379 54 589 80 652 80 52 0 89 -4 84 -9 -9
-8 -723 -139 -1173 -216 -111 -19 -207 -37 -212 -40 -12 -8 -13 -35 -2 -35 5
0 149 23 321 50 283 45 365 56 336 44 -5 -2 -155 -28 -332 -58 -176 -29 -326
-57 -332 -60 -6 -4 -11 -20 -11 -37 l0 -29 98 -1 97 -1 -100 -17 c-79 -13
-100 -20 -103 -33 -2 -11 3 -18 12 -18 8 0 138 18 288 40 167 25 325 43 408
46 l135 4 -160 -45 c-136 -39 -200 -51 -425 -78 -248 -30 -265 -34 -268 -53
-3 -20 -2 -20 100 -7 57 7 107 12 112 10 5 -2 -38 -13 -95 -26 -57 -13 -110
-25 -117 -27 -6 -2 -12 -13 -12 -25 0 -17 4 -20 24 -15 44 11 1798 277 1802
273 2 -2 -76 -18 -173 -36 -98 -17 -389 -70 -648 -117 -290 -52 -572 -96 -735
-115 -146 -18 -266 -33 -268 -34 -1 -1 -5 -25 -9 -54 l-6 -51 104 -2 104 -1
-102 -10 c-90 -9 -103 -12 -103 -28 0 -24 -15 -25 358 12 172 16 323 29 335
27 35 -6 -165 -35 -440 -65 -224 -25 -253 -30 -253 -45 0 -14 9 -18 43 -20 40
-1 40 -1 7 -5 -43 -5 -60 -26 -60 -75 0 -36 1 -38 33 -38 99 0 683 71 1276
154 371 53 676 94 678 93 8 -9 -739 -170 -847 -183 -129 -15 -1054 -150 -1103
-160 -24 -5 -27 -10 -27 -47 l0 -42 192 2 c220 2 215 -5 -27 -39 -144 -21
-160 -25 -163 -43 -5 -44 7 -46 136 -26 67 10 122 15 122 11 0 -9 -27 -15
-154 -31 l-98 -13 5 -39 c3 -22 11 -43 17 -47 9 -6 9 -9 1 -11 -8 -3 -10 -18
-5 -47 l7 -42 245 0 c135 0 243 -2 240 -5 -2 -3 -40 -10 -83 -16 -44 -6 -145
-26 -225 -45 -80 -18 -148 -34 -152 -34 -4 0 -6 -6 -4 -12 3 -7 7 -24 10 -38
l5 -25 213 1 213 2 -207 -26 c-115 -14 -208 -28 -208 -31 1 -33 16 -33 411 14
365 42 409 45 599 43 l205 -3 -471 -73 c-258 -40 -522 -79 -585 -87 -63 -7
-115 -14 -116 -14 -10 -3 0 -33 11 -37 7 -3 64 2 127 10 155 21 1398 148 1410
144 8 -3 -1483 -229 -1503 -228 -5 0 -8 -9 -8 -20 0 -11 5 -20 10 -20 6 0 550
81 1209 180 l1198 180 329 -2 328 -3 -229 -58 c-208 -51 -277 -63 -715 -122
-267 -36 -577 -79 -690 -95 -116 -17 -466 -52 -804 -80 -329 -27 -601 -51
-603 -53 -2 -2 -1 -12 3 -21 5 -13 15 -16 48 -12 81 11 428 37 432 33 2 -2
-66 -14 -153 -26 -330 -46 -312 -42 -295 -69 6 -9 135 7 583 72 506 75 914
125 925 114 13 -13 -414 -88 -901 -158 -314 -46 -572 -84 -574 -86 -3 -3 3
-20 12 -39 20 -42 20 -42 257 -16 91 11 166 18 168 16 1 -1 -77 -21 -175 -44
-223 -53 -206 -47 -194 -68 31 -56 31 -57 112 -40 41 9 124 19 184 22 198 11
989 65 1045 71 126 14 22 -9 -345 -75 -215 -39 -504 -84 -644 -101 -139 -16
-255 -31 -257 -32 -1 -2 12 -24 31 -49 26 -37 38 -46 57 -42 95 16 1695 253
1707 252 9 0 -49 -18 -128 -40 -100 -27 -324 -69 -740 -139 -328 -54 -642
-104 -699 -111 -56 -7 -108 -16 -114 -20 -19 -12 10 -40 36 -34 33 8 623 83
701 90 68 6 65 4 -155 -74 l-225 -81 -142 0 c-79 0 -143 -3 -143 -6 0 -15 103
-134 116 -134 7 0 121 16 253 35 131 19 247 35 257 34 33 -1 -261 -76 -368
-94 -57 -10 -105 -19 -107 -21 -3 -3 13 -22 34 -44 28 -28 48 -40 70 -41 17
-1 23 -3 12 -6 -23 -6 -17 -25 14 -40 13 -7 20 -13 15 -13 -5 0 -1 -9 9 -20
10 -11 28 -20 41 -20 12 0 161 22 331 50 278 45 323 50 463 49 86 0 146 -4
135 -8 -11 -4 -207 -43 -435 -86 -228 -43 -417 -80 -419 -82 -3 -2 2 -10 10
-18 13 -14 76 -4 565 89 l549 105 207 3 c114 2 206 2 204 0 -2 -2 -125 -18
-273 -37 -147 -18 -471 -68 -720 -109 -249 -42 -465 -76 -480 -76 l-28 -1 24
-19 c16 -14 39 -20 80 -21 52 -1 54 -2 18 -9 -47 -9 -54 -16 -28 -29 15 -9 63
-4 200 19 155 25 226 31 494 40 347 11 473 12 465 5 -3 -3 -198 -50 -434 -104
-548 -126 -521 -119 -502 -138 14 -13 50 -7 348 62 182 42 333 75 336 73 2 -3
-38 -23 -89 -46 -74 -34 -131 -50 -297 -83 -250 -49 -238 -45 -218 -65 14 -14
27 -13 139 9 68 14 117 21 109 16 -86 -53 -135 -79 -146 -79 -23 0 -15 -14 21
-38 28 -18 35 -19 35 -7 0 8 4 15 8 15 5 0 314 49 688 109 373 60 680 108 681
107 9 -9 -422 -109 -830 -193 -453 -93 -477 -99 -457 -115 11 -9 28 -14 37
-12 10 2 224 47 476 99 251 52 596 131 767 175 170 44 347 85 392 90 292 34
1652 179 1655 177 12 -13 -322 -83 -1242 -261 -969 -187 -1099 -210 -1512
-265 -249 -34 -461 -61 -470 -61 -31 0 89 -73 152 -92 102 -33 263 -68 307
-68 53 -1 37 -11 -54 -35 -38 -10 -68 -21 -68 -25 0 -5 17 -18 38 -30 34 -21
46 -22 147 -17 l110 5 -68 -22 c-38 -12 -69 -25 -70 -29 -1 -4 12 -16 29 -26
30 -18 31 -18 195 20 415 98 466 107 729 129 299 25 640 37 625 22 -5 -5 -111
-39 -235 -76 -279 -82 -717 -177 -1030 -224 l-55 -8 40 -25 c22 -14 59 -37 82
-50 l42 -24 188 63 c178 59 205 64 488 107 164 25 300 43 302 42 11 -12 -354
-105 -714 -183 -123 -26 -223 -51 -223 -56 0 -21 62 -19 178 7 336 72 579 132
807 201 195 60 285 81 410 100 88 13 171 26 185 29 66 14 -29 -20 -305 -108
-309 -99 -532 -161 -620 -172 -114 -15 -435 -78 -493 -97 l-64 -20 38 -23 c43
-26 10 -30 346 51 153 37 289 63 423 80 109 13 202 23 207 22 21 -7 -638 -169
-754 -185 -71 -9 -128 -19 -128 -22 0 -9 99 -71 112 -71 7 0 171 34 363 75
322 70 384 80 774 126 233 27 425 48 427 46 2 -1 -151 -40 -339 -86 -406 -98
-785 -159 -1052 -170 l-160 -6 62 -43 c36 -24 74 -42 90 -42 19 0 24 -3 15 -9
-10 -6 -10 -10 2 -20 12 -10 46 -4 177 33 146 41 173 46 268 46 60 0 101 -4
96 -9 -6 -5 -93 -25 -195 -45 -102 -20 -209 -41 -239 -47 -49 -10 -52 -12 -37
-27 14 -14 26 -14 138 7 68 12 214 42 324 67 183 40 214 44 336 44 177 0 686
-12 673 -16 -6 -2 -291 -58 -635 -124 -344 -66 -629 -122 -635 -124 -5 -2 3
-9 18 -17 25 -11 67 -5 380 55 194 38 523 101 732 141 l380 73 414 -6 413 -7
-268 -72 c-248 -67 -313 -80 -844 -167 -316 -52 -680 -106 -808 -122 l-233
-28 38 -33 c24 -21 49 -32 68 -32 17 -1 167 17 335 39 167 21 306 38 307 36 2
-1 -23 -10 -54 -18 -550 -151 -515 -140 -496 -161 10 -10 26 -23 35 -28 22
-12 173 23 598 136 608 162 597 160 984 209 197 26 361 45 363 43 2 -2 -29 -9
-69 -16 -253 -41 -618 -141 -1213 -331 -209 -66 -413 -130 -453 -142 l-73 -21
43 -44 42 -43 330 0 c181 0 327 -2 324 -6 -3 -3 -128 -24 -277 -47 l-271 -42
38 -38 39 -38 193 26 c105 14 194 24 196 22 3 -2 -73 -16 -168 -31 -210 -33
-206 -32 -186 -52 15 -15 27 -14 143 5 70 12 129 20 131 18 2 -2 -44 -14 -104
-26 -153 -32 -147 -30 -129 -48 14 -14 26 -14 124 6 59 13 152 34 207 47 165
42 118 20 -81 -36 -104 -29 -192 -55 -196 -58 -12 -6 23 -42 40 -42 8 0 12 -4
9 -9 -3 -5 0 -14 8 -20 10 -8 88 15 329 98 176 61 440 143 596 185 251 68 289
76 368 76 l88 -1 -130 -48 c-71 -27 -186 -71 -255 -99 -218 -87 -292 -110
-620 -187 -176 -41 -323 -75 -326 -75 -4 0 -1 -7 6 -15 7 -8 19 -15 28 -15 35
0 616 143 707 174 55 18 192 70 304 115 112 45 253 97 314 116 108 34 114 35
282 35 159 0 173 1 190 20 18 20 17 20 -91 21 -108 0 -109 0 -65 14 25 8 85
19 134 25 103 12 110 15 157 65 27 29 30 36 15 32 -203 -56 -429 -99 -505 -97
-8 1 116 37 275 80 160 44 300 83 312 87 18 7 254 205 249 210 -1 1 -96 -27
-211 -63 -404 -124 -879 -240 -1194 -292 l-286 -46 -463 -6 c-254 -3 -462 -2
-462 1 0 11 83 30 522 119 1057 212 1292 268 1783 425 199 63 201 64 399 80
197 16 222 21 244 47 9 11 -13 11 -126 2 -75 -7 -138 -11 -140 -9 -10 10 166
54 256 65 l103 12 120 86 c66 47 118 87 115 89 -2 2 -30 0 -62 -6 -109 -21
-99 -10 25 25 80 22 145 47 183 71 32 20 56 38 54 40 -2 2 -127 -25 -277 -61
-532 -126 -764 -163 -1073 -171 -99 -3 -176 -3 -171 0 6 3 316 93 690 200
l680 195 262 35 c205 28 270 40 298 56 20 12 34 23 33 25 -2 1 -66 -6 -143
-17 -77 -10 -144 -18 -150 -16 -5 2 86 27 203 56 139 33 230 60 258 77 25 15
43 28 41 30 -6 7 -405 -92 -632 -156 -199 -56 -261 -67 -1165 -215 -525 -86
-1093 -183 -1263 -215 l-308 -60 -317 1 c-174 1 -378 4 -452 8 l-135 6 200 62
c187 58 229 67 630 132 237 39 914 145 1505 236 1009 155 1097 167 1435 194
198 17 406 33 462 37 82 5 109 11 140 30 l38 24 -115 -6 c-164 -8 -511 -10
-502 -3 4 3 50 16 102 28 52 13 177 47 276 77 l182 54 143 0 c106 1 151 4 169
15 23 13 18 14 -64 15 -49 0 -87 3 -83 6 3 3 64 18 136 33 95 20 142 36 173
56 56 37 188 135 188 139 0 2 -55 -17 -122 -41 l-123 -44 -525 -54 c-289 -30
-584 -64 -657 -75 -136 -21 -159 -23 -152 -16 5 5 1460 260 1579 277 75 10 91
16 134 50 l49 39 -35 0 c-74 0 -359 -33 -745 -85 -220 -30 -409 -55 -420 -54
-10 0 20 11 67 24 71 21 335 63 1125 182 99 14 114 20 153 51 23 19 41 36 40
38 -2 1 -26 -2 -53 -7 -41 -8 -319 -42 -515 -63 -27 -3 46 25 180 69 189 63
248 78 370 95 117 16 149 24 165 41 l20 21 -37 -4 c-50 -5 -38 7 22 23 38 10
61 25 102 66 45 46 49 53 28 49 -43 -10 -1582 -207 -1586 -203 -2 1 317 80
709 175 515 125 760 179 886 198 96 14 178 27 182 30 17 10 100 129 92 131 -5
2 -76 -10 -157 -27 -82 -16 -154 -30 -160 -29 -6 0 71 22 172 48 129 34 187
53 197 67 16 21 19 34 8 34 -15 0 -1680 -231 -1703 -236 -14 -3 -22 -3 -19 1
7 7 1672 417 1764 434 33 7 70 14 82 16 15 4 32 25 54 70 18 36 30 68 26 71
-4 4 -98 -7 -209 -24 -112 -17 -329 -48 -483 -67 -154 -20 -435 -61 -624 -91
-189 -30 -348 -53 -353 -52 -18 7 959 251 1092 273 219 37 560 85 601 85 34 0
49 12 49 39 0 4 -50 2 -112 -6 -147 -18 -161 -11 -23 11 156 25 151 23 163 64
6 20 10 38 8 40 -2 2 -55 -4 -116 -14 -86 -13 -117 -14 -131 -6 -10 7 -43 13
-74 14 -30 1 -55 6 -55 10 0 4 3 8 8 8 31 0 382 49 391 54 17 11 13 34 -6 39
-14 4 -12 5 5 6 12 0 22 4 22 9 0 4 4 24 9 45 l9 39 -81 -7 c-102 -9 -97 0 9
18 65 11 80 17 82 33 3 18 -5 19 -245 17 -136 -1 -243 0 -238 2 10 5 476 75
495 75 5 0 10 9 10 20 0 11 -4 20 -10 20 -13 0 -746 -109 -785 -116 -16 -4
-27 -4 -24 0 12 13 374 86 593 120 126 20 231 38 234 41 10 10 19 95 9 95 -5
0 -66 -18 -136 -41 -107 -34 -184 -49 -521 -99 -217 -32 -485 -73 -595 -90
-110 -17 -224 -30 -255 -28 l-55 3 85 27 c47 15 213 62 370 103 280 75 290 77
610 115 179 21 367 41 418 45 66 5 92 11 92 20 0 7 3 20 6 29 5 14 -7 16 -92
17 l-99 1 95 19 c52 10 96 18 98 18 1 1 2 21 2 44 l0 44 -227 -34 c-432 -63
-816 -114 -837 -111 -11 2 80 18 204 36 299 45 432 72 451 91 11 11 75 25 213
45 138 20 200 33 203 43 3 8 3 17 -1 20 -12 13 -564 -54 -768 -92 -73 -14
-160 -30 -193 -35 -133 -21 -724 -109 -775 -115 -75 -9 -53 8 30 24 36 6 229
52 430 101 493 121 504 122 925 129 322 6 350 7 353 24 3 15 -8 17 -119 17
-67 0 -120 2 -117 5 2 3 56 12 118 20 62 8 115 17 118 20 2 2 2 11 -1 19 -4
11 -15 14 -34 11 -91 -16 -595 -75 -642 -75 -31 0 -96 -9 -146 -20 -106 -23
-636 -112 -641 -107 -2 2 139 49 314 105 208 66 358 109 437 123 66 11 197 37
290 56 115 24 210 37 294 40 l124 6 -6 84 c-2 46 -7 86 -10 89 -3 3 -198 -19
-434 -49 -235 -30 -429 -54 -430 -53 -2 1 17 17 42 34 57 40 59 62 7 62 -184
0 -955 -52 -1205 -81 -93 -10 -210 -18 -260 -18 l-92 1 85 14 c90 14 487 62
1195 144 741 86 1067 139 1073 173 5 23 -7 22 -162 -8 -194 -38 -341 -58 -952
-130 -753 -88 -1013 -120 -1309 -160 -167 -23 -286 -35 -360 -34 l-110 0 170
45 c261 68 550 150 650 184 82 28 175 41 1045 145 525 64 965 118 978 121 29
6 26 40 -3 37 -330 -39 -1697 -204 -1713 -207 -39 -6 -11 9 66 37 96 35 1058
187 1183 187 91 0 394 17 446 26 24 3 31 9 26 21 -5 13 -20 15 -91 11 -94 -5
-84 5 17 17 l63 7 -6 49 c-10 78 -14 82 -55 75 -20 -4 -81 -8 -136 -11 l-100
-4 130 15 c72 9 132 17 133 19 2 2 -2 29 -9 59 -10 46 -16 56 -33 56 -19 0
-611 -82 -1094 -151 -118 -17 -216 -29 -218 -27 -2 3 36 16 85 31 58 17 287
56 657 112 312 47 569 87 571 89 2 2 1 11 -3 20 -4 12 -14 16 -28 13 -43 -11
-178 -28 -182 -25 -2 3 41 12 97 22 l100 18 -7 31 c-15 69 -21 77 -56 72 -33
-5 -33 -5 -5 6 28 11 33 24 18 49 -8 12 -51 10 -313 -19 -167 -18 -325 -34
-353 -37 -27 -2 103 28 289 66 186 38 341 71 343 73 2 2 1 11 -3 20 -4 11 -14
15 -28 12 -11 -3 -256 -52 -544 -110 -288 -58 -527 -107 -532 -110 -6 -4 -240
-31 -840 -95 -52 -6 -108 -13 -125 -17 -16 -3 -27 -2 -24 1 4 4 139 42 300 86
162 43 309 83 327 89 18 5 81 17 140 26 78 12 1198 251 1255 268 8 2 -61 149
-85 180 -13 17 -16 17 -72 -3 -47 -16 -85 -20 -184 -20 -69 0 -123 2 -120 5 4
5 321 65 340 65 13 0 9 16 -10 39 l-17 22 -103 -16 c-56 -9 -107 -15 -113 -13
-6 2 39 12 100 22 61 11 111 22 111 26 0 4 -6 13 -13 19 -10 8 -42 6 -123 -9
-60 -11 -297 -52 -527 -90 -410 -69 -423 -70 -600 -70 -99 0 -178 2 -176 5 6
6 1161 190 1292 206 53 6 97 15 97 19 0 26 -30 29 -138 15 -107 -14 -1228
-191 -1266 -200 -45 -10 6 15 79 39 88 28 261 56 875 142 223 31 406 57 408
59 2 1 -11 23 -29 49 -25 35 -37 44 -53 41 -12 -3 -185 -35 -386 -70 -201 -36
-374 -68 -385 -71 -37 -11 -1 12 55 35 35 15 108 30 205 42 310 38 515 72 515
85 0 7 -4 15 -9 18 -5 3 -100 -8 -212 -24 -112 -17 -210 -29 -218 -28 -9 2 74
16 184 32 110 16 205 32 212 35 8 4 9 12 3 20 -7 12 -25 12 -127 -2 -211 -31
-207 -31 -108 8 49 20 109 39 133 42 23 3 44 9 46 12 2 3 -11 23 -28 45 l-33
38 -389 -42 c-214 -23 -519 -59 -678 -81 -159 -22 -293 -38 -297 -37 -5 2 166
41 379 87 354 76 409 86 647 109 143 14 262 26 264 28 2 2 -2 11 -10 20 -10
13 -26 15 -79 11 l-65 -6 47 12 c60 15 63 19 35 45 l-23 22 -274 -50 c-150
-28 -278 -49 -283 -47 -5 1 105 29 244 62 140 32 258 62 262 65 15 13 -78 80
-109 80 -16 0 -152 -20 -302 -45 -151 -25 -277 -45 -280 -44 -17 1 55 23 280
85 134 36 245 68 247 70 2 2 -8 8 -21 14 -27 13 -78 0 -536 -131 -133 -39
-250 -68 -260 -66 -13 4 -11 5 6 6 15 1 22 7 22 21 0 24 -2 24 -110 5 -300
-52 -813 -125 -1310 -185 -316 -38 -734 -92 -929 -119 -304 -43 -357 -53 -375
-71 -15 -15 -17 -20 -6 -20 8 0 191 24 405 54 488 68 652 89 666 84 6 -2 -238
-38 -542 -80 -485 -67 -555 -79 -573 -97 -26 -27 -26 -27 151 -1 557 80 1446
200 1450 197 2 -3 -45 -12 -104 -21 -59 -9 -434 -70 -832 -136 -627 -102 -727
-121 -745 -139 -11 -12 -15 -21 -8 -21 12 0 695 111 1637 265 280 46 511 83
513 81 7 -7 -374 -94 -438 -100 -36 -4 -438 -63 -895 -133 -741 -113 -832
-129 -847 -147 -9 -11 -16 -21 -15 -22 1 -1 43 4 92 12 633 98 1079 164 1087
162 13 -5 -962 -185 -1097 -203 -96 -13 -113 -18 -133 -41 -13 -15 -21 -28
-19 -31 3 -2 65 7 138 21 142 27 640 98 646 92 2 -2 -20 -9 -49 -16 -29 -7
-123 -29 -208 -50 -112 -28 -208 -43 -345 -56 -227 -22 -203 -5 -322 -215 -98
-173 -103 -183 -77 -176 10 3 48 8 84 11 63 5 62 5 -23 -12 -63 -12 -92 -22
-99 -35 -5 -10 -8 -21 -5 -23 3 -3 70 2 151 11 80 9 150 15 156 13 6 -2 -62
-14 -152 -26 -118 -17 -166 -28 -175 -40 -16 -20 -16 -33 0 -27 15 5 502 75
524 75 9 0 14 -3 10 -6 -3 -3 -129 -23 -279 -45 -214 -30 -276 -42 -285 -56
-7 -9 -11 -18 -9 -21 2 -2 62 4 133 12 71 9 135 16 143 15 30 -1 -130 -52
-298 -94 -172 -44 -202 -55 -202 -81 0 -16 -9 -19 -160 -43 -155 -25 -306 -44
-570 -71 -113 -12 -704 -97 -1315 -190 -828 -126 -1243 -184 -1635 -229 -289
-34 -543 -64 -565 -67 -74 -11 -31 5 135 50 99 27 237 55 345 71 209 30 642
103 1035 174 573 104 833 145 1820 286 558 79 1030 147 1048 150 33 6 33 7 18
30 -9 13 -16 31 -16 40 0 9 -9 15 -22 15 -13 0 -221 -31 -463 -70 -397 -62
-991 -137 -1019 -127 -6 2 14 7 44 11 108 14 1434 217 1437 219 1 2 -3 11 -10
21 -11 16 -21 16 -142 1 -72 -8 -143 -15 -159 -15 -62 0 -15 9 129 26 83 9
151 18 153 20 2 1 -3 16 -12 32 l-15 30 -63 -13 c-129 -27 -499 -86 -520 -83
-12 2 112 25 275 53 163 27 297 54 297 59 0 5 -25 54 -55 108 -52 91 -58 97
-83 93 -98 -17 -325 -46 -334 -43 -12 4 198 44 295 56 56 7 57 8 43 28 -14 20
-18 20 -98 9 -95 -14 -238 -27 -223 -20 6 3 72 13 148 23 75 10 140 22 144 26
4 3 2 11 -5 18 -16 16 -164 -3 -502 -68 -262 -50 -341 -60 -980 -124 -382 -39
-706 -69 -720 -68 -14 2 22 9 80 16 1581 199 2090 269 2090 290 0 7 -6 15 -13
18 -8 3 -103 -9 -213 -25 -257 -39 -1764 -232 -1783 -229 -47 10 621 109 1234
184 385 47 710 87 722 90 31 6 18 34 -16 34 -14 0 -171 -18 -349 -40 -178 -22
-331 -40 -340 -39 -9 1 138 27 327 59 188 32 345 61 348 64 3 3 1 12 -6 19 -9
12 -38 9 -178 -15 -93 -15 -175 -27 -183 -25 -8 1 59 15 150 30 203 35 198 33
178 53 -14 14 -82 4 -700 -105 -376 -67 -693 -121 -704 -121 -10 1 102 41 249
89 l268 89 409 64 c226 34 410 65 410 68 0 3 -4 11 -9 19 -7 11 -53 6 -267
-27 -143 -22 -260 -39 -262 -38 -6 6 167 57 316 94 83 20 152 39 152 42 0 3
-22 29 -48 58 l-47 52 -205 -34 c-244 -40 -300 -47 -280 -37 20 11 404 101
430 101 27 0 25 12 -5 40 l-25 24 -108 -28 c-99 -25 -353 -69 -360 -62 -3 4
257 67 371 90 38 8 71 16 73 19 2 2 -26 30 -62 61 l-65 58 -57 -15 c-69 -19
-350 -69 -363 -65 -5 2 82 23 193 46 112 24 205 45 207 47 3 4 -46 49 -94 87
-24 19 -27 18 -281 -17 -141 -20 -261 -34 -267 -32 -20 6 145 36 327 59 198
24 186 17 111 73 -26 20 -23 20 -197 -25 -138 -36 -287 -64 -295 -56 -2 2 93
30 212 62 118 32 215 62 215 66 0 28 -73 14 -397 -76 -304 -83 -373 -99 -542
-121 -106 -14 -195 -24 -197 -22 -14 14 592 180 1004 274 12 3 22 8 22 12 0 3
-25 21 -56 40 l-56 33 -215 -31 c-119 -17 -218 -29 -220 -27 -6 5 136 42 257
66 57 12 106 23 107 24 2 2 -41 24 -95 49 l-99 47 -314 -30 c-173 -17 -320
-29 -328 -28 -8 2 96 25 230 52 134 27 248 52 252 56 4 4 -24 17 -63 30 l-70
23 -141 -22 c-77 -13 -143 -21 -145 -18 -2 2 35 14 83 27 49 12 92 26 96 30 5
4 -44 17 -108 30 -115 23 -165 23 -310 5 l-40 -5 35 11 c80 25 70 28 -90 27
-91 -1 -178 -3 -195 -5z m514 -77 c-2 -3 -85 -28 -183 -56 -134 -37 -228 -57
-369 -76 -104 -14 -191 -23 -193 -21 -8 8 168 48 449 102 280 54 303 58 296
51z m-520 -40 c-8 -7 -671 -167 -681 -164 -8 3 545 145 627 162 28 5 59 7 54
2z m461 -81 c-58 -12 -148 -34 -200 -48 -83 -23 -243 -50 -365 -63 -22 -3 23
14 100 37 90 27 206 51 325 69 226 34 280 36 140 5z m90 -124 c-387 -79 -591
-128 -730 -176 -41 -15 -124 -33 -185 -41 -60 -8 -211 -39 -335 -70 -194 -47
-696 -141 -706 -131 -2 2 353 99 789 216 l792 212 340 33 c187 19 358 34 380
34 22 0 -133 -34 -345 -77z m-732 44 c-2 -3 -76 -25 -164 -50 -117 -33 -242
-58 -474 -94 -173 -27 -316 -48 -317 -47 -7 7 414 111 517 128 354 57 446 71
438 63z m777 -86 c-66 -16 -239 -58 -385 -94 -255 -63 -380 -84 -285 -49 59
22 260 70 520 124 256 54 335 63 150 19z m185 -10 c-77 -27 -232 -60 -270 -58
-17 1 317 87 340 87 8 0 -23 -13 -70 -29z m-1305 -84 c-170 -47 -316 -85 -324
-85 -8 0 -3 8 11 19 50 40 478 147 593 149 17 1 -109 -37 -280 -83z m1474 11
c-8 -7 -256 -75 -400 -110 -79 -19 -238 -66 -354 -105 -187 -62 -361 -108
-371 -98 -2 2 29 14 69 26 39 13 180 63 312 111 227 83 255 91 480 133 248 46
271 50 264 43z m-1899 -105 c-8 -5 -28 -11 -45 -14 l-30 -6 30 14 c34 16 72
21 45 6z m1208 -6 c-9 -9 -314 -119 -423 -153 -183 -57 -636 -162 -956 -222
-272 -52 -553 -100 -583 -100 -36 0 36 18 275 69 151 32 328 77 394 99 119 40
1004 270 1120 291 99 18 183 25 173 16z m6720 -62 c-10 -2 -26 -2 -35 0 -10 3
-2 5 17 5 19 0 27 -2 18 -5z m-5329 -7 c-15 -15 -562 -153 -973 -246 -402 -90
-613 -131 -1190 -230 -385 -66 -736 -127 -780 -135 -95 -18 -103 -18 -51 1
196 73 450 135 1210 295 655 138 898 184 1270 244 429 68 525 81 514 71z
m-699 -30 c0 -8 -188 -48 -206 -44 -11 2 19 14 66 25 81 20 140 28 140 19z
m5690 -37 c-29 -10 -982 -190 -986 -186 -2 2 85 28 194 60 205 59 472 109 672
125 144 12 151 13 120 1z m-6250 -44 c-106 -27 -331 -67 -337 -61 -10 9 152
50 262 66 164 24 187 22 75 -5z m1027 -86 c-58 -19 -557 -103 -564 -95 -7 6
75 23 347 71 277 48 298 51 217 24z m4743 -15 c-52 -13 -122 -25 -155 -28 -42
-4 -19 3 75 23 163 35 212 38 80 5z m-6655 -29 c-23 -7 -70 -15 -105 -18 l-65
-6 85 18 c99 22 143 25 85 6z m6810 -21 c-5 -2 -233 -51 -505 -109 -437 -94
-774 -156 -835 -154 -36 1 845 197 1025 228 96 16 189 32 205 34 40 5 123 6
110 1z m-1747 -21 c-10 -2 -26 -2 -35 0 -10 3 -2 5 17 5 19 0 27 -2 18 -5z
m-3289 -27 c-7 -7 -411 -117 -415 -114 -3 4 201 68 316 99 61 17 109 24 99 15z
m-1889 -23 c-41 -18 -270 -76 -276 -70 -4 4 283 86 301 85 6 0 -6 -7 -25 -15z
m6149 3 c-7 -8 -311 -57 -323 -53 -11 4 117 30 229 46 73 10 100 12 94 7z
m1550 -31 c-3 -2 -36 -17 -74 -34 -62 -26 -148 -41 -750 -130 -726 -108 -915
-134 -921 -128 -2 2 387 69 864 149 978 164 887 149 881 143z m-5219 -21
c-113 -29 -678 -119 -687 -110 -7 6 32 14 347 66 157 27 301 48 320 48 19 0
28 -2 20 -4z m-1660 -20 c-125 -40 -477 -129 -650 -164 -431 -88 -198 -17 360
109 297 68 382 84 290 55z m5727 10 c-3 -3 -12 -4 -19 -1 -8 3 -5 6 6 6 11 1
17 -2 13 -5z m-5450 -50 c-3 -3 -12 -4 -19 -1 -8 3 -5 6 6 6 11 1 17 -2 13 -5z
m-182 -45 c-126 -33 -401 -75 -413 -64 -9 8 487 103 538 103 14 0 -42 -17
-125 -39z m5960 35 c-22 -8 -1639 -274 -1649 -271 -6 2 41 13 104 25 95 18
1377 230 1475 245 40 5 83 6 70 1z m-1792 -11 c-7 -2 -19 -2 -25 0 -7 3 -2 5
12 5 14 0 19 -2 13 -5z m572 2 c-24 -9 -418 -95 -421 -92 -7 6 188 57 291 77
92 17 154 24 130 15z m-5616 -69 c-2 -3 -96 -28 -207 -56 -168 -42 -239 -54
-408 -71 -113 -11 -210 -19 -215 -17 -9 3 779 144 820 147 8 1 12 -1 10 -3z
m1748 -12 c-3 -3 -12 -4 -19 -1 -8 3 -5 6 6 6 11 1 17 -2 13 -5z m332 2 c-7
-7 -262 -74 -304 -80 -61 -8 -24 4 135 45 139 36 178 44 169 35z m-744 -86
c-209 -44 -387 -79 -395 -79 -37 1 297 90 405 108 440 75 436 63 -10 -29z
m5885 76 c0 -2 -45 -20 -99 -40 -130 -48 -301 -79 -906 -166 -365 -52 -534
-70 -1190 -125 -384 -32 -856 -78 -930 -90 -28 -5 -29 -4 -6 5 13 6 101 20
195 31 94 11 538 74 986 140 898 132 1950 264 1950 245z m-2241 -20 c-10 -9
-268 -75 -314 -80 -28 -3 23 14 115 38 150 40 210 53 199 42z m-4766 -53 c-7
-2 -21 -2 -30 0 -10 3 -4 5 12 5 17 0 24 -2 18 -5z m5226 2 c-8 -7 -261 -56
-277 -53 -9 2 42 15 113 30 127 26 173 33 164 23z m-6454 -20 c-54 -16 -122
-28 -113 -20 8 8 113 33 138 33 8 0 -3 -6 -25 -13z m3588 -22 c-7 -2 -21 -2
-30 0 -10 3 -4 5 12 5 17 0 24 -2 18 -5z m-60 -10 c-7 -2 -19 -2 -25 0 -7 3
-2 5 12 5 14 0 19 -2 13 -5z m-60 -10 c-7 -2 -19 -2 -25 0 -7 3 -2 5 12 5 14
0 19 -2 13 -5z m-2468 -19 c-133 -22 -163 -25 -137 -14 28 12 133 28 182 28
19 0 -1 -6 -45 -14z m2412 10 c-3 -3 -12 -4 -19 -1 -8 3 -5 6 6 6 11 1 17 -2
13 -5z m-952 -24 c-11 -5 -96 -30 -190 -55 -93 -26 -252 -71 -353 -101 -144
-42 -245 -63 -470 -99 -259 -42 -482 -85 -824 -159 -65 -15 -132 -26 -150 -25
-29 0 -25 3 27 20 115 37 1649 374 1905 417 71 12 79 13 55 2z m6538 -7 c-7
-2 -19 -2 -25 0 -7 3 -2 5 12 5 14 0 19 -2 13 -5z m-7623 -74 c-179 -60 -444
-129 -455 -117 -5 5 615 186 640 186 11 1 -72 -30 -185 -69z m1043 11 c-153
-52 -307 -89 -319 -78 -4 5 452 135 476 136 8 0 -62 -26 -157 -58z m6514 54
c-3 -3 -12 -4 -19 -1 -8 3 -5 6 6 6 11 1 17 -2 13 -5z m-3314 -11 c-7 -2 -19
-2 -25 0 -7 3 -2 5 12 5 14 0 19 -2 13 -5z m-198 -39 c-88 -18 -169 -33 -180
-32 -27 0 284 66 315 66 14 0 -47 -15 -135 -34z m2263 31 c-3 -3 -43 -19 -89
-35 -74 -26 -97 -29 -189 -29 -121 2 -112 5 115 43 159 27 170 28 163 21z
m-4411 -11 c-3 -3 -12 -4 -19 -1 -8 3 -5 6 6 6 11 1 17 -2 13 -5z m-2208 -29
c-8 -7 -311 -87 -315 -82 -2 2 62 22 143 45 141 39 182 48 172 37z m4150 -29
c-6 -6 -362 -66 -385 -65 -10 1 62 16 161 34 174 31 233 39 224 31z m251 -22
c-77 -19 -522 -92 -600 -98 -36 -3 88 21 275 53 340 59 428 71 325 45z m2110
-70 c-173 -30 -322 -53 -330 -51 -8 1 48 26 125 54 l140 52 190 -1 190 0 -315
-54z m780 40 c-170 -34 -374 -65 -412 -62 -29 2 34 15 187 39 228 36 350 49
225 23z m365 1 c-170 -17 -222 -17 -140 0 33 7 107 13 165 13 l105 -1 -130
-12z m-1582 -2 c-7 -2 -21 -2 -30 0 -10 3 -4 5 12 5 17 0 24 -2 18 -5z m-6418
-13 c-11 -5 -27 -9 -35 -9 -9 0 -8 4 5 9 11 5 27 9 35 9 9 0 8 -4 -5 -9z
m1578 3 c-7 -2 -19 -2 -25 0 -7 3 -2 5 12 5 14 0 19 -2 13 -5z m4657 -19 c-74
-13 -144 -23 -155 -21 -24 3 217 45 260 45 17 0 -31 -11 -105 -24z m349 12
c-2 -2 -63 -27 -135 -54 -126 -49 -137 -51 -300 -66 -226 -20 -524 -40 -529
-35 -3 4 911 155 954 158 8 1 12 -1 10 -3z m-5375 -61 c-72 -24 -358 -79 -376
-73 -17 6 178 57 292 77 141 25 169 24 84 -4z m4839 18 c-7 -2 -19 -2 -25 0
-7 3 -2 5 12 5 14 0 19 -2 13 -5z m-56 -9 c-3 -3 -12 -4 -19 -1 -8 3 -5 6 6 6
11 1 17 -2 13 -5z m-3298 -8 c-8 -8 -361 -67 -377 -64 -17 4 14 11 223 48 95
18 163 24 154 16z m2346 -1 c-5 -2 -89 -13 -185 -25 -96 -11 -321 -39 -498
-61 -178 -22 -326 -38 -328 -36 -9 9 390 68 621 92 132 13 256 26 275 28 48 5
127 6 115 2z m2498 -22 c-7 -2 -19 -2 -25 0 -7 3 -2 5 12 5 14 0 19 -2 13 -5z
m-148 -19 c-55 -8 -250 -37 -434 -65 -183 -27 -338 -48 -343 -47 -18 6 420 80
608 103 209 25 327 31 169 9z m-6082 -1 c-7 -2 -19 -2 -25 0 -7 3 -2 5 12 5
14 0 19 -2 13 -5z m1911 -33 c-77 -19 -215 -39 -444 -64 -183 -20 -334 -35
-337 -33 -5 5 469 83 652 107 77 10 163 18 190 18 46 0 40 -3 -61 -28z m4431
19 c-51 -12 -1416 -214 -1553 -229 -57 -7 -105 -10 -107 -8 -4 3 980 152 1450
219 199 28 285 35 210 18z m-5576 -4 c-14 -13 -1113 -213 -1404 -256 -187 -27
-364 -54 -393 -60 -30 -6 -55 -9 -58 -7 -2 2 126 48 284 101 l287 98 630 63
c740 75 659 67 654 61z m-1484 -37 c-132 -42 -245 -66 -350 -73 -60 -4 -108
-5 -105 -2 3 3 86 21 185 40 304 60 375 70 270 35z m4710 -4 c-77 -13 -203
-28 -280 -34 -77 -5 -160 -13 -185 -16 -71 -9 -41 5 46 22 85 17 427 51 509
52 34 0 4 -8 -90 -24z m2912 20 c-3 -3 -12 -4 -19 -1 -8 3 -5 6 6 6 11 1 17
-2 13 -5z m-8308 -8 c-15 -14 -281 -79 -409 -100 -85 -15 -166 -29 -180 -32
-14 -3 -22 -3 -19 0 15 15 310 91 434 111 141 23 182 28 174 21z m8251 -6
c-14 -4 -34 -8 -45 -8 -16 0 -15 2 5 8 14 4 34 8 45 8 16 0 15 -2 -5 -8z
m-7022 -17 c-10 -2 -28 -2 -40 0 -13 2 -5 4 17 4 22 1 32 -1 23 -4z m6949 1
c-3 -3 -12 -4 -19 -1 -8 3 -5 6 6 6 11 1 17 -2 13 -5z m-2067 -25 c-14 -6
-187 -28 -385 -50 -310 -34 -476 -60 -1186 -184 -454 -80 -841 -147 -860 -151
-79 -13 4 15 133 45 76 18 220 61 320 97 129 46 214 69 288 80 95 15 1630 171
1690 172 l25 1 -25 -10z m1623 4 c-7 -2 -21 -2 -30 0 -10 3 -4 5 12 5 17 0 24
-2 18 -5z m-54 -7 c-4 -4 -221 -39 -406 -66 -87 -12 -123 -12 -68 2 95 23 487
76 474 64z m-1389 -46 c-112 -22 -206 -37 -208 -36 -10 11 130 48 223 60 199
25 193 15 -15 -24z m-1022 13 c-10 -2 -26 -2 -35 0 -10 3 -2 5 17 5 19 0 27
-2 18 -5z m-4913 -149 c-362 -122 -365 -123 -749 -174 -224 -30 -281 -34 -192
-11 24 6 199 56 388 111 207 60 418 114 529 135 416 81 420 72 24 -61z m5634
112 c-2 -2 -33 -16 -68 -30 -57 -23 -355 -88 -392 -85 -8 1 90 27 216 59 235
59 251 63 244 56z m1546 -2 c-5 -2 -109 -26 -230 -54 -146 -34 -440 -86 -874
-156 l-654 -104 -201 1 -201 1 420 73 c299 53 593 96 1020 150 330 41 620 79
645 84 46 9 93 12 75 5z m-2888 -10 c-3 -3 -12 -4 -19 -1 -8 3 -5 6 6 6 11 1
17 -2 13 -5z m1028 -20 c-5 -2 -161 -40 -345 -84 l-335 -82 -504 -54 c-278
-30 -509 -53 -513 -52 -15 5 1339 240 1487 259 131 16 233 22 210 13z m-3195
-24 c-96 -17 -1374 -200 -1377 -197 -1 2 61 23 140 47 140 42 150 44 672 100
292 32 548 58 570 58 l40 0 -45 -8z m-3215 -34 c-60 -15 -170 -27 -161 -18 9
9 134 30 176 30 32 0 31 -1 -15 -12z m-400 -26 c-11 -5 -31 -8 -45 -8 l-25 0
25 8 c14 4 34 8 45 8 l20 1 -20 -9z m7438 3 c-7 -2 -21 -2 -30 0 -10 3 -4 5
12 5 17 0 24 -2 18 -5z m2417 3 c0 -3 -24 -11 -53 -20 -51 -15 -995 -111
-1004 -102 -8 7 71 17 552 71 520 58 505 57 505 51z m-3213 -12 c-3 -3 -12 -4
-19 -1 -8 3 -5 6 6 6 11 1 17 -2 13 -5z m731 -1 c-10 -2 -26 -2 -35 0 -10 3
-2 5 17 5 19 0 27 -2 18 -5z m-4223 -63 c-105 -28 -704 -124 -713 -115 -13 12
170 51 448 94 363 56 419 61 265 21z m725 14 c-28 -7 -1072 -164 -1084 -163
-37 3 653 115 999 162 38 5 105 6 85 1z m-1651 -38 c-5 -5 -273 -82 -314 -90
-16 -3 -223 -33 -460 -66 -236 -33 -441 -62 -455 -66 -18 -4 -22 -2 -14 6 6 6
274 56 595 110 321 55 591 101 599 104 21 5 54 7 49 2z m5746 -1 c-58 -23
-407 -105 -434 -103 -25 2 32 19 184 54 187 44 289 64 250 49z m-1550 -10
c-22 -8 -417 -66 -421 -62 -3 3 213 43 326 60 32 5 108 7 95 2z m-5157 -40
c-8 -8 -179 -37 -185 -31 -6 6 96 26 176 35 8 0 12 -1 9 -4z m6281 1 c-13 -12
-251 -56 -298 -55 -46 1 -27 6 104 29 162 28 202 33 194 26z m941 -6 c-25 -4
-88 -10 -140 -13 l-95 -5 95 12 c52 7 115 13 140 13 l45 1 -45 -8z m-6177 -40
c-52 -24 -112 -36 -371 -74 -169 -25 -312 -46 -318 -45 -5 0 56 18 136 40 117
32 531 106 600 107 8 0 -13 -12 -47 -28z m6512 25 c-21 -8 -366 -47 -371 -42
-7 7 56 17 191 32 108 12 200 17 180 10z m-2485 -21 c-36 -7 -90 -13 -120 -12
-52 1 -51 1 30 13 118 17 174 17 90 -1z m1888 9 c-10 -2 -26 -2 -35 0 -10 3
-2 5 17 5 19 0 27 -2 18 -5z m-73 -63 c-38 -11 -212 -37 -385 -60 -173 -22
-468 -67 -654 -100 -187 -33 -340 -59 -342 -57 -1 1 180 51 404 110 l407 107
170 1 c94 1 213 5 265 9 52 3 120 7 150 7 l55 1 -70 -18z m-2166 -4 c-2 -2
-112 -23 -244 -46 -132 -22 -404 -70 -604 -106 -201 -35 -369 -63 -374 -61 -4
1 128 35 295 75 344 82 683 140 832 141 55 1 97 -1 95 -3z m626 -2 c-19 -7
-457 -75 -461 -71 -3 2 37 20 88 40 91 35 96 36 238 36 80 -1 141 -2 135 -5z
m484 1 c-13 -13 -291 -64 -792 -145 -304 -50 -565 -93 -582 -95 -29 -5 111 50
205 82 25 8 250 47 500 88 347 55 481 73 564 74 60 0 107 -1 105 -4z m-4444
-85 c-823 -137 -1097 -181 -1101 -178 -2 2 115 32 259 66 230 55 313 69 677
117 756 99 786 98 165 -5z m2725 74 c-8 -2 -568 -92 -1243 -199 -1223 -194
-1233 -195 -2175 -305 -521 -60 -967 -112 -992 -115 -129 -13 118 30 1190 209
l1165 195 985 106 c542 58 992 107 1000 109 20 5 89 5 70 0z m675 -53 l-120
-49 -754 -106 c-414 -59 -755 -105 -757 -103 -6 6 1681 305 1726 306 14 0 -29
-22 -95 -48z m2935 44 c0 -14 -89 -30 -553 -100 -836 -126 -902 -135 -1011
-134 -129 1 -118 4 239 73 333 65 743 119 1060 141 200 14 251 18 263 24 1 0
2 -1 2 -4z m-1701 -9 c-5 -5 -220 -62 -629 -169 l-285 -75 -205 -6 c-112 -4
-202 -5 -200 -2 3 2 124 27 270 56 146 28 348 69 450 91 259 56 613 118 599
105z m-6842 -12 c-3 -3 -12 -4 -19 -1 -8 3 -5 6 6 6 11 1 17 -2 13 -5z m1033
-10 c-132 -32 -315 -55 -297 -38 7 7 286 51 327 51 14 1 0 -5 -30 -13z m-1093
0 c-3 -3 -12 -4 -19 -1 -8 3 -5 6 6 6 11 1 17 -2 13 -5z m1748 -9 c22 -8 33
-14 24 -15 -8 0 -183 -25 -388 -55 -459 -68 -1410 -197 -1423 -193 -4 2 387
64 869 139 483 75 878 137 878 138 0 0 18 -6 40 -14z m-1802 -2 c-7 -2 -19 -2
-25 0 -7 3 -2 5 12 5 14 0 19 -2 13 -5z m-50 -10 c-7 -2 -19 -2 -25 0 -7 3 -2
5 12 5 14 0 19 -2 13 -5z m-60 -10 c-7 -2 -19 -2 -25 0 -7 3 -2 5 12 5 14 0
19 -2 13 -5z m622 -2 c-10 -9 -152 -32 -183 -30 -9 1 26 9 78 19 120 22 116
22 105 11z m-672 -8 c-7 -2 -21 -2 -30 0 -10 3 -4 5 12 5 17 0 24 -2 18 -5z
m-78 -13 c-16 -4 -41 -8 -55 -8 -22 0 -22 1 5 8 17 4 41 8 55 8 22 0 22 -1 -5
-8z m9464 6 c-7 -7 -1089 -156 -1124 -155 -28 0 -28 1 -8 9 26 11 817 126 948
139 105 10 190 13 184 7z m-9562 -22 c-3 -3 -12 -4 -19 -1 -8 3 -5 6 6 6 11 1
17 -2 13 -5z m636 -1 c-7 -2 -21 -2 -30 0 -10 3 -4 5 12 5 17 0 24 -2 18 -5z
m7917 -42 c-119 -38 -506 -93 -625 -89 -87 3 -78 5 280 59 204 31 384 57 400
57 19 0 -1 -10 -55 -27z m1535 4 c-29 -12 -724 -115 -764 -114 -40 1 227 50
564 103 81 13 225 20 200 11z m-5415 -30 c-47 -14 -500 -126 -790 -196 -111
-27 -303 -59 -590 -100 -234 -33 -631 -91 -883 -129 -463 -71 -687 -100 -742
-99 -16 0 443 83 1020 185 578 101 1264 222 1525 268 483 85 540 94 460 71z
m920 -46 c-83 -29 -194 -58 -260 -69 -137 -23 -1577 -192 -1599 -188 -9 2 18
14 60 26 70 21 1838 280 1914 280 17 0 -31 -20 -115 -49z m-4230 -30 c-230
-57 -341 -79 -675 -130 -391 -59 -613 -79 -860 -77 -54 0 -56 1 -25 8 61 15
1778 268 1815 268 11 0 -104 -31 -255 -69z m3387 45 c-3 -3 -12 -4 -19 -1 -8
3 -5 6 6 6 11 1 17 -2 13 -5z m4493 -15 c-25 -4 -57 -10 -72 -13 -16 -3 -28
-1 -28 4 0 9 46 16 110 17 31 1 30 0 -10 -8z m-3543 -55 c-3 -3 -12 -4 -19 -1
-8 3 -5 6 6 6 11 1 17 -2 13 -5z m1933 -19 c-92 -16 -541 -58 -572 -53 -49 7
430 65 537 65 l110 0 -75 -12z m425 5 c-22 -4 -74 -10 -115 -13 l-75 -6 75 13
c41 8 93 14 115 14 l40 0 -40 -8z m-1590 -70 c-306 -61 -499 -92 -485 -77 16
17 270 70 380 79 69 5 134 14 144 20 22 11 226 46 271 46 17 0 -123 -31 -310
-68z m-337 55 c-19 -19 -809 -107 -824 -93 -2 3 85 21 194 42 162 30 232 38
392 45 107 4 206 9 219 9 13 1 22 0 19 -3z m2831 -19 c-2 -2 -26 -6 -54 -10
-36 -5 -46 -4 -35 3 13 10 99 16 89 7z m-244 -31 c-16 -7 -91 -23 -165 -35
-74 -12 -200 -37 -280 -56 -125 -30 -558 -105 -593 -103 -7 0 19 11 57 25 100
35 891 181 986 182 24 0 24 0 -5 -13z m-1692 -2 c-7 -2 -19 -2 -25 0 -7 3 -2
5 12 5 14 0 19 -2 13 -5z m-1888 -22 c-85 -30 -279 -60 -525 -81 -129 -11
-286 -25 -349 -31 -63 -5 -128 -9 -145 -7 -30 3 980 135 1039 136 25 0 22 -2
-20 -17z m1500 -57 c-146 -24 -152 -24 -132 -13 10 6 48 14 85 19 106 12 135
9 47 -6z m-3825 -15 c-52 -10 -484 -86 -960 -168 -802 -140 -891 -153 -1220
-186 -313 -31 -389 -35 -639 -35 -156 0 -282 2 -280 4 7 7 325 64 424 76 50 6
113 15 140 20 28 6 613 75 1300 155 688 80 1257 147 1265 149 8 2 26 4 40 4
14 0 -18 -8 -70 -19z m4443 -6 c-7 -2 -21 -2 -30 0 -10 3 -4 5 12 5 17 0 24
-2 18 -5z m-1018 -13 c-27 -5 -68 -8 -90 -8 l-40 1 40 7 c22 4 63 7 90 7 l50
0 -50 -7z m948 3 c-7 -2 -19 -2 -25 0 -7 3 -2 5 12 5 14 0 19 -2 13 -5z
m-1658 -13 c-11 -5 -33 -8 -50 -8 -29 1 -29 1 5 8 49 10 69 10 45 0z m-2138
-31 c-55 -17 -516 -74 -540 -66 -10 3 540 84 578 85 11 0 -6 -8 -38 -19z
m2041 14 c-10 -2 -26 -2 -35 0 -10 3 -2 5 17 5 19 0 27 -2 18 -5z m1249 1 c-3
-3 -12 -4 -19 -1 -8 3 -5 6 6 6 11 1 17 -2 13 -5z m1609 -20 c-60 -20 -364
-69 -374 -59 -5 4 204 51 303 69 127 22 152 19 71 -10z m-2928 9 c-10 -2 -26
-2 -35 0 -10 3 -2 5 17 5 19 0 27 -2 18 -5z m1267 2 c-21 -8 -417 -66 -421
-62 -4 4 188 39 309 57 55 8 129 11 112 5z m-1996 -9 c-6 -7 -244 -39 -1029
-141 -404 -52 -746 -98 -760 -100 -55 -11 9 14 110 43 87 26 211 44 730 107
649 78 967 109 949 91z m531 -22 c-80 -13 -284 -49 -455 -79 -324 -57 -785
-128 -792 -122 -14 15 224 59 689 127 299 44 566 84 593 89 28 5 64 9 80 9 17
0 -35 -11 -115 -24z m759 2 c-6 -6 -292 -47 -296 -42 -3 2 22 10 54 17 82 17
252 35 242 25z m-2240 -30 c-7 -6 -380 -49 -385 -44 -7 8 103 28 201 37 103 9
190 13 184 7z m3751 -17 c-30 -12 -244 -49 -273 -48 -26 2 237 56 273 57 l25
1 -25 -10z m-2041 -3 c-7 -7 -300 -74 -354 -81 -27 -4 -59 -9 -70 -11 -16 -4
-17 -3 -5 4 41 25 450 109 429 88z m1576 -1 c-68 -26 -1785 -258 -1868 -253
-32 2 316 52 878 127 512 68 932 125 934 127 2 2 18 4 35 3 17 0 27 -2 21 -4z
m-6622 -12 c-7 -2 -19 -2 -25 0 -7 3 -2 5 12 5 14 0 19 -2 13 -5z m-118 -18
c-88 -15 -121 -18 -114 -10 8 7 110 23 154 23 26 0 13 -5 -40 -13z m5464 1
c-7 -8 -360 -93 -434 -106 -107 -18 -557 -80 -575 -79 -8 0 89 25 215 54 233
55 813 150 794 131z m1864 -3 c-7 -2 -19 -2 -25 0 -7 3 -2 5 12 5 14 0 19 -2
13 -5z m436 3 c-6 -6 -319 -91 -597 -162 l-253 -64 -165 2 -166 3 354 84 c275
66 399 91 563 112 208 27 272 33 264 25z m-486 -13 c-7 -2 -21 -2 -30 0 -10 3
-4 5 12 5 17 0 24 -2 18 -5z m-380 -10 c-7 -2 -19 -2 -25 0 -7 3 -2 5 12 5 14
0 19 -2 13 -5z m-4193 -12 c-18 -10 -161 -34 -167 -27 -4 4 136 33 167 35 13
0 13 -1 0 -8z m3833 -38 c-7 -2 -21 -2 -30 0 -10 3 -4 5 12 5 17 0 24 -2 18
-5z m-4593 -9 c-8 -2 -236 -35 -505 -74 -432 -62 -565 -78 -530 -65 17 7 681
106 835 125 130 16 239 24 200 14z m2529 2 c-17 -17 -424 -94 -436 -83 -2 3
81 21 184 40 103 20 197 38 208 40 28 7 49 8 44 3z m1496 -72 c-345 -50 -534
-73 -585 -71 -58 2 47 18 475 73 303 39 566 72 585 72 19 0 -194 -33 -475 -74z
m-4568 60 c-3 -3 -12 -4 -19 -1 -8 3 -5 6 6 6 11 1 17 -2 13 -5z m663 -25
c-108 -27 -696 -110 -755 -107 -33 2 93 24 370 64 231 34 429 62 440 62 11 0
-14 -9 -55 -19z m1490 -4 c0 -27 -493 -107 -629 -103 -81 3 -67 6 259 54 384
58 370 56 370 49z m-1270 -41 c-147 -44 -290 -66 -416 -62 l-99 3 90 19 c110
23 457 74 505 74 24 1 -1 -10 -80 -34z m4399 32 c-2 -2 -72 -25 -154 -50
l-151 -46 -219 1 c-266 1 -254 6 170 59 296 37 362 44 354 36z m2406 -66 l-50
-30 -404 0 c-222 0 -402 2 -400 4 6 6 681 48 864 54 l40 2 -50 -30z m-8328 -6
c-3 -3 -12 -4 -19 -1 -8 3 -5 6 6 6 11 1 17 -2 13 -5z m-144 -71 c-7 -2 -21
-2 -30 0 -10 3 -4 5 12 5 17 0 24 -2 18 -5z m407 1 c-26 -7 -1007 -144 -1138
-159 -291 -34 -141 -8 423 75 330 48 629 88 665 88 36 0 58 -2 50 -4z m619 2
c-8 -7 -560 -117 -571 -114 -17 6 483 116 531 117 24 1 42 -1 40 -3z m1051 -2
c-17 -4 -1140 -170 -1210 -178 -25 -3 59 21 185 53 210 55 256 63 530 94 165
19 347 35 405 35 58 0 98 -2 90 -4z m605 -4 c-22 -4 -60 -10 -85 -13 l-45 -6
35 14 c19 7 58 13 85 13 l50 0 -40 -8z m348 3 c-7 -2 -19 -2 -25 0 -7 3 -2 5
12 5 14 0 19 -2 13 -5z m902 -79 c-319 -46 -584 -82 -588 -81 -4 1 61 19 145
40 194 48 763 125 918 125 96 0 55 -8 -475 -84z m890 80 c-5 -2 -392 -74 -860
-159 -630 -116 -955 -170 -1254 -211 -222 -30 -405 -53 -407 -51 -2 2 106 29
239 60 332 79 699 141 1537 262 671 96 770 110 745 99z m590 -40 c-99 -24
-319 -78 -490 -119 l-310 -75 -510 -60 c-706 -83 -880 -106 -1685 -220 -515
-72 -755 -102 -890 -110 -102 -5 -192 -10 -200 -9 -8 0 107 25 255 55 193 38
452 78 905 139 591 79 703 98 1605 264 l970 179 265 0 265 0 -180 -44z m684
42 c-18 -18 -750 -147 -823 -145 -11 0 49 20 134 44 85 24 200 57 255 74 93
27 112 30 269 30 93 1 167 -1 165 -3z m216 -7 c-22 -4 -51 -8 -65 -7 l-25 0
25 8 c14 4 43 8 65 8 l40 0 -40 -9z m700 6 c-5 -3 -228 -56 -495 -119 -458
-108 -513 -118 -985 -191 -859 -131 -1158 -168 -1485 -185 -113 -5 -236 -13
-275 -16 -38 -3 -67 -3 -64 0 8 9 209 57 504 122 138 30 336 74 440 98 105 25
231 49 280 55 50 6 299 41 555 77 1188 166 1149 162 1350 162 102 0 181 -1
175 -3z m990 -1 c-11 -2 -220 -22 -465 -44 -277 -26 -539 -56 -695 -80 -226
-35 -404 -57 -365 -44 9 2 173 42 365 88 l350 84 415 0 c228 -1 406 -2 395 -4z
m935 -5 c-25 -4 -70 -7 -100 -7 -53 1 -54 1 -15 8 22 4 67 7 100 7 l60 0 -45
-8z m-9002 -6 c-10 -2 -26 -2 -35 0 -10 3 -2 5 17 5 19 0 27 -2 18 -5z m1330
1 c-8 -7 -236 -44 -268 -43 -35 1 31 17 145 33 105 16 130 18 123 10z m-1405
-11 c-7 -2 -19 -2 -25 0 -7 3 -2 5 12 5 14 0 19 -2 13 -5z m3842 -4 c-35 -12
-706 -101 -712 -95 -8 8 653 104 717 104 23 0 23 0 -5 -9z m4554 1 c-34 -20
-218 -40 -583 -65 -209 -14 -386 -24 -395 -23 -13 3 895 92 974 96 17 1 18 0
4 -8z m-8462 -6 c-3 -3 -12 -4 -19 -1 -8 3 -5 6 6 6 11 1 17 -2 13 -5z m2561
-15 c-10 -5 -48 -12 -85 -14 l-68 -4 70 13 c91 18 105 18 83 5z m5942 -70
c-123 -21 -226 -37 -227 -35 -2 1 27 15 64 29 51 20 98 29 183 35 211 16 207
10 -20 -29z m-9407 -6 c-7 -2 -19 -2 -25 0 -7 3 -2 5 12 5 14 0 19 -2 13 -5z
m1922 -8 c-31 -12 -793 -175 -860 -184 -142 -19 -557 -62 -562 -58 -2 2 31 10
74 16 43 7 191 35 328 63 296 60 1077 185 1020 163z m7183 -1 c-3 -3 -57 -21
-120 -40 -121 -37 -1238 -229 -1616 -278 -401 -53 -771 -95 -872 -100 l-105
-5 90 15 c332 57 1867 301 2125 339 173 26 351 53 395 60 95 15 110 17 103 9z
m-5948 -13 c-16 -9 -170 -32 -204 -30 -12 1 29 9 89 19 135 21 133 21 115 11z
m5529 5 c-8 -8 -2560 -398 -2566 -393 -6 7 817 206 912 221 55 9 240 38 410
65 260 41 363 53 640 71 182 12 375 25 430 29 124 10 180 12 174 7z m-4360
-10 c-2 -2 -102 -29 -221 -60 -160 -41 -369 -82 -795 -156 -318 -55 -731 -127
-918 -160 -335 -58 -1054 -165 -1061 -157 -4 4 504 96 1941 351 1049 187 1061
189 1054 182z m-1411 -33 c-10 -2 -26 -2 -35 0 -10 3 -2 5 17 5 19 0 27 -2 18
-5z m-75 -10 c-7 -2 -19 -2 -25 0 -7 3 -2 5 12 5 14 0 19 -2 13 -5z m592 -8
c-22 -8 -587 -106 -591 -103 -7 7 319 79 421 92 94 13 192 19 170 11z m5865
-26 c-30 -11 -169 -56 -309 -100 -246 -77 -265 -82 -595 -135 -353 -57 -499
-74 -481 -57 8 8 633 185 735 208 38 9 662 103 685 103 11 0 -5 -8 -35 -19z
m-5687 -6 c-7 -2 -19 -2 -25 0 -7 3 -2 5 12 5 14 0 19 -2 13 -5z m-53 -9 c-8
-2 -346 -62 -750 -133 -404 -72 -997 -178 -1318 -236 l-583 -106 -449 -2
c-248 -1 -450 1 -450 4 0 10 168 47 260 58 108 13 422 37 660 51 676 39 828
58 1465 174 286 53 644 116 795 140 151 25 286 47 300 49 32 5 90 6 70 1z
m-1651 -35 c-60 -14 -732 -110 -743 -106 -6 2 5 8 24 12 62 14 684 103 720
103 l35 0 -36 -9z m745 -44 c14 -11 16 -15 5 -15 -8 0 -84 -9 -169 -20 -220
-28 -253 -24 -65 9 88 16 169 31 180 34 11 2 22 5 25 6 3 0 14 -6 24 -14z
m2541 -51 c-71 -19 -272 -63 -445 -98 l-315 -64 -340 -16 c-187 -9 -353 -19
-369 -21 -16 -3 -27 -2 -23 1 3 3 86 19 184 36 211 35 1365 196 1408 196 17 0
-28 -15 -100 -34z m3084 2 c-2 -2 -121 -36 -264 -77 l-260 -73 -280 -6 c-154
-3 -282 -4 -284 -3 -7 4 48 13 544 86 479 72 553 82 544 73z m-6022 -12 c-3
-3 -12 -4 -19 -1 -8 3 -5 6 6 6 11 1 17 -2 13 -5z m6776 -24 c-36 -15 -422
-92 -435 -88 -20 7 141 47 290 72 152 26 177 29 145 16z m-2944 -89 l-306 -78
-234 -5 c-129 -3 -225 -3 -214 -1 56 12 1014 161 1035 161 14 0 -113 -35 -281
-77z m-5334 54 c-39 -12 -150 -29 -130 -20 15 7 138 33 155 33 8 0 -3 -6 -25
-13z m1414 11 c-10 -10 -356 -67 -489 -80 -258 -27 -1058 -81 -1066 -73 -13
12 272 53 616 87 217 22 442 46 500 54 95 12 449 22 439 12z m911 -27 c-84
-22 -396 -71 -419 -67 -16 3 440 86 474 86 11 0 -14 -9 -55 -19z m7020 -30
c-43 -11 -101 -18 -135 -17 -59 3 -59 3 45 19 142 22 182 21 90 -2z m-4677
-36 c-7 -2 -19 -2 -25 0 -7 3 -2 5 12 5 14 0 19 -2 13 -5z m-53 -9 c-138 -33
-1211 -166 -1225 -152 -2 2 98 30 223 62 l227 58 335 17 c322 18 472 23 440
15z m1905 -39 c-5 -2 -120 -18 -255 -35 -135 -17 -450 -62 -700 -100 -399 -62
-488 -73 -720 -86 -145 -8 -274 -13 -285 -12 -11 2 57 13 150 26 94 12 429 61
745 109 513 76 597 86 775 93 254 8 302 9 290 5z m2238 -2 c-7 -2 -19 -2 -25
0 -7 3 -2 5 12 5 14 0 19 -2 13 -5z m-1108 -8 c-21 -8 -438 -66 -448 -62 -27
9 293 65 373 65 47 0 81 -1 75 -3z m1048 -2 c-7 -2 -19 -2 -25 0 -7 3 -2 5 12
5 14 0 19 -2 13 -5z m-5335 -8 c-10 -11 -299 -60 -803 -136 -523 -79 -535 -81
-930 -103 -220 -13 -402 -22 -404 -20 -4 3 -52 -5 679 115 l615 101 405 23
c223 12 414 23 424 24 11 0 17 -1 14 -4z m5275 -2 c-7 -2 -19 -2 -25 0 -7 3
-2 5 12 5 14 0 19 -2 13 -5z m-1983 -19 c-25 -8 -83 -21 -130 -29 -111 -19
-827 -97 -854 -93 -39 6 918 135 1004 136 17 0 11 -5 -20 -14z m1923 9 c-7 -2
-21 -2 -30 0 -10 3 -4 5 12 5 17 0 24 -2 18 -5z m-3423 -24 c-172 -22 -231
-22 -80 1 63 10 138 18 165 18 29 -1 -6 -8 -85 -19z m3365 15 c-20 -8 -494
-84 -517 -83 -26 1 464 86 502 87 14 0 21 -1 15 -4z m-3737 -9 c-4 -4 -356
-53 -1404 -195 -273 -37 -318 -40 -480 -38 l-179 3 160 43 c158 42 168 43 830
108 645 63 1090 96 1073 79z m-1368 -9 c0 -2 -84 -24 -187 -49 -144 -35 -231
-50 -371 -63 -100 -9 -185 -15 -187 -12 -3 2 82 17 188 32 105 16 269 43 362
61 178 35 195 38 195 31z m1523 -23 c-7 -2 -19 -2 -25 0 -7 3 -2 5 12 5 14 0
19 -2 13 -5z m1957 -4 c-50 -12 -349 -41 -363 -35 -8 3 -7 5 3 6 8 1 83 9 165
19 83 10 168 19 190 19 l40 0 -35 -9z m-5120 -60 c-743 -123 -858 -139 -991
-138 -120 2 -122 2 -59 11 433 65 1316 186 1355 186 28 0 -110 -26 -305 -59z
m3463 54 c-7 -2 -21 -2 -30 0 -10 3 -4 5 12 5 17 0 24 -2 18 -5z m-133 -19
c-166 -26 -584 -83 -587 -80 -11 11 151 41 357 65 250 30 374 38 230 15z
m2320 5 c-167 -33 -1081 -160 -1134 -158 -26 1 898 145 1009 158 44 4 100 8
125 9 l45 0 -45 -9z m-6185 -55 c-165 -23 -451 -61 -636 -84 -308 -37 -355
-40 -570 -39 -129 0 -229 2 -224 5 6 2 195 29 420 59 301 41 491 61 715 75
632 41 670 39 295 -16z m6930 -44 l-310 -79 -175 1 c-166 0 -173 1 -130 14
144 46 747 142 890 142 19 0 -104 -35 -275 -78z m-1970 39 c-16 -4 -154 -32
-305 -61 l-275 -53 -305 -3 c-167 -1 -302 -1 -299 2 6 7 509 59 869 91 162 14
300 28 305 30 6 2 17 3 25 3 8 0 2 -4 -15 -9z m1295 5 c-39 -10 -766 -124
-788 -124 -14 0 -23 2 -20 5 6 7 439 79 618 104 119 16 232 25 190 15z m-4847
-31 c-7 -2 -19 -2 -25 0 -7 3 -2 5 12 5 14 0 19 -2 13 -5z m1657 -19 c-41 -13
-106 -28 -145 -33 -78 -11 -421 -24 -390 -14 23 6 549 71 585 71 14 0 -9 -11
-50 -24z m-1655 -45 c-103 -27 -123 -29 -304 -29 -107 0 -192 2 -190 5 3 2 90
11 194 20 105 9 222 20 260 24 144 17 156 11 40 -20z m-3130 -5 c-38 -8 -77
-13 -85 -11 -19 4 84 25 125 25 17 0 -1 -7 -40 -14z m6738 -11 c-7 -2 -21 -2
-30 0 -10 3 -4 5 12 5 17 0 24 -2 18 -5z m1042 -3 c-11 -5 -31 -8 -45 -8 l-25
0 25 8 c14 4 34 8 45 8 l20 1 -20 -9z m-2702 -7 c-18 -2 -48 -2 -65 0 -18 2
-4 4 32 4 36 0 50 -2 33 -4z m-3398 -49 c-54 -10 -819 -85 -833 -82 -35 7 360
61 528 73 162 11 351 17 305 9z m1535 0 c-37 -9 -403 -54 -407 -51 -2 3 40 16
94 30 78 20 122 25 213 25 63 0 108 -2 100 -4z m805 1 c-29 -11 -783 -107
-798 -102 -17 5 448 78 588 92 127 12 230 17 210 10z m374 1 c-20 -20 -338
-91 -744 -166 l-490 -90 -805 -85 c-918 -98 -992 -104 -810 -72 117 21 125 23
124 45 0 12 3 22 8 22 5 0 84 11 176 25 92 14 345 48 562 75 217 27 616 76
885 110 270 33 609 78 755 99 246 36 349 47 339 37z m186 -11 c-55 -7 -102
-11 -104 -10 -9 10 72 23 134 23 l70 0 -100 -13z m1170 -6 c-340 -73 -689
-130 -965 -158 -176 -18 -963 -72 -1028 -70 -15 0 20 14 78 30 62 18 338 68
670 123 l565 94 385 0 385 0 -90 -19z m1115 5 c-108 -16 -154 -15 -75 1 33 7
83 13 110 13 43 -1 37 -3 -35 -14z m700 6 c-14 -5 -268 -79 -565 -164 l-540
-154 -760 -126 c-526 -87 -937 -149 -1335 -200 -641 -83 -707 -91 -700 -83 8
8 145 62 355 139 190 70 190 70 440 104 138 19 846 138 1575 264 1205 208
1335 228 1440 228 78 0 107 -2 90 -8z m555 5 c-53 -21 -874 -199 -881 -192 -2
2 130 46 294 99 l297 97 150 0 c83 0 146 -2 140 -4z m190 -16 c-57 -18 -304
-63 -311 -56 -6 5 309 75 341 76 22 0 15 -5 -30 -20z m1594 17 c-12 -10 -318
-67 -414 -76 -60 -6 -429 -57 -820 -115 -605 -88 -1006 -137 -1020 -123 -12
11 1032 216 1340 263 l350 53 284 1 c156 1 282 -1 280 -3z m-1020 -10 c-16
-15 -846 -152 -857 -141 -5 5 -16 3 438 79 354 60 429 71 419 62z m-8066 -83
c-7 -2 -19 -2 -25 0 -7 3 -2 5 12 5 14 0 19 -2 13 -5z m8992 2 c-21 -8 -367
-56 -371 -52 -7 6 158 37 246 46 82 9 141 12 125 6z m273 -32 c-10 -2 -26 -2
-35 0 -10 3 -2 5 17 5 19 0 27 -2 18 -5z m-7365 -20 c-7 -2 -19 -2 -25 0 -7 3
-2 5 12 5 14 0 19 -2 13 -5z m-293 -48 c-140 -24 -282 -46 -315 -49 l-60 -5
55 15 c60 18 484 82 540 82 19 0 -80 -20 -220 -43z m4630 -15 c-98 -32 -226
-63 -180 -43 29 13 265 81 280 81 8 0 -37 -17 -100 -38z m1900 4 c-112 -25
-219 -40 -340 -48 -104 -6 -70 1 179 39 256 39 305 42 161 9z m363 -11 c-7 -2
-21 -2 -30 0 -10 3 -4 5 12 5 17 0 24 -2 18 -5z m-1446 -9 c-3 -3 -12 -4 -19
-1 -8 3 -5 6 6 6 11 1 17 -2 13 -5z m-82 -19 c-65 -17 -101 -17 -50 0 22 8 54
13 70 13 24 0 19 -3 -20 -13z m-2072 -2 c-7 -2 -21 -2 -30 0 -10 3 -4 5 12 5
17 0 24 -2 18 -5z m-88 -14 c-81 -17 -982 -168 -1035 -173 -156 -16 344 82
655 128 336 50 483 67 380 45z m-2145 -9 c-14 -5 -83 -16 -155 -25 -162 -20
-384 -57 -870 -145 -691 -125 -949 -160 -1460 -200 -143 -11 -327 -25 -408
-31 -81 -6 -150 -10 -152 -7 -8 8 945 130 1475 188 469 52 595 70 899 126 299
56 596 100 676 102 16 0 15 -1 -5 -8z m5880 1 c-42 -23 -326 -74 -307 -54 10
10 244 62 282 62 26 0 35 -2 25 -8z m357 3 c-3 -3 -64 -11 -136 -18 -133 -12
-151 -10 -78 11 43 11 225 18 214 7z m-5987 -58 c-228 -29 -437 -56 -464 -59
-27 -4 -47 -5 -45 -3 3 3 55 19 117 36 121 32 202 43 487 64 353 26 323 14
-95 -38z m3650 9 c-58 -19 -170 -48 -250 -65 -136 -28 -770 -123 -777 -116 -2
1 57 22 129 46 116 37 185 51 548 105 228 35 424 63 435 63 11 0 -27 -15 -85
-33z m1529 1 c-13 -13 -148 -38 -309 -56 -305 -34 -353 -44 -1195 -245 -553
-132 -844 -196 -919 -204 -107 -12 -157 -9 -74 4 24 4 457 101 963 217 895
204 928 211 1215 248 327 42 325 42 319 36z m-4519 -46 c-118 -20 -273 -49
-344 -64 -129 -26 -153 -30 -145 -22 6 6 441 94 544 110 189 29 150 12 -55
-24z m3860 34 c-55 -14 -1318 -195 -1349 -193 -98 5 897 167 1155 188 103 9
220 11 194 5z m1356 -10 c-34 -12 -928 -175 -952 -173 -5 0 113 34 261 75 255
71 281 77 460 93 105 10 208 19 230 19 l40 1 -39 -15z m-7079 -40 c-38 -7
-335 -43 -660 -79 -326 -36 -722 -84 -882 -105 -159 -22 -296 -40 -305 -39 -8
0 35 14 95 30 90 23 223 41 720 94 336 35 707 76 825 89 242 27 307 30 207 10z
m493 -20 c-77 -22 -467 -80 -476 -71 -2 2 80 19 183 37 104 18 217 38 253 45
109 22 132 15 40 -11z m5936 19 c-3 -4 -185 -55 -404 -115 -379 -103 -636
-158 -807 -173 -60 -5 -60 -4 -15 6 277 64 473 113 740 184 175 46 353 88 396
93 44 5 83 10 88 11 5 0 6 -2 2 -6z m-457 -47 c-6 -6 -346 -95 -554 -144 -166
-40 -774 -156 -781 -149 -7 7 1066 258 1181 276 126 20 161 24 154 17z m-5239
-12 c-33 -8 -525 -82 -528 -80 -8 9 192 48 328 65 142 17 237 24 200 15z
m1045 -21 c-49 -17 -156 -37 -349 -64 -154 -21 -282 -37 -284 -35 -6 7 170 44
333 70 88 14 198 32 245 40 123 20 134 18 55 -11z m-3207 12 c-7 -8 -418 -77
-431 -72 -18 6 348 73 412 76 13 1 22 -1 19 -4z m6761 1 c-11 -11 -1356 -314
-1649 -372 -179 -35 -417 -75 -530 -89 -113 -14 -223 -28 -245 -31 -22 -3 -38
-4 -35 -1 3 3 257 76 565 161 l560 155 285 42 c233 34 986 134 1039 138 8 1
12 -1 10 -3z m-4014 -22 c-27 -7 -138 -30 -245 -49 -107 -20 -285 -59 -395
-87 -173 -44 -217 -52 -325 -55 -240 -9 -130 16 580 132 184 30 349 59 365 64
17 5 39 9 50 9 11 0 -2 -6 -30 -14z m-438 -10 c-3 -3 -12 -4 -19 -1 -8 3 -5 6
6 6 11 1 17 -2 13 -5z m2732 -8 c-20 -19 -424 -115 -435 -103 -4 4 283 84 346
96 49 10 96 13 89 7z m-3570 -30 c-17 -16 -316 -81 -509 -110 -244 -37 -755
-99 -771 -94 -20 7 812 152 1021 178 220 28 267 33 259 26z m3120 -30 c-3 -3
-79 -25 -169 -50 -144 -39 -233 -55 -705 -120 -493 -69 -1379 -164 -1425 -153
-21 5 34 14 195 32 77 9 577 78 1110 154 1039 148 1001 143 994 137z m-2839
-11 c0 -2 -8 -9 -19 -14 -20 -11 -801 -144 -807 -138 -11 10 226 62 421 92
227 35 398 62 403 64 1 1 2 -1 2 -4z m991 -65 c-85 -33 -195 -78 -245 -101
l-91 -40 -455 -49 c-250 -27 -468 -52 -485 -55 -84 -14 35 22 380 115 367 99
390 104 685 145 168 24 319 43 335 44 18 0 -30 -23 -124 -59z m2324 44 c-33
-7 -69 -13 -80 -12 -30 1 75 26 110 26 19 0 7 -5 -30 -14z m2200 -94 l-420
-109 -926 -101 c-510 -55 -933 -100 -940 -99 -30 2 223 59 326 74 61 8 261 38
445 65 184 27 488 70 675 95 187 25 394 55 460 67 168 30 734 115 770 116 17
0 -159 -48 -390 -108z m1304 76 c-2 -3 -85 -25 -184 -50 -335 -84 -624 -132
-1399 -231 -407 -52 -740 -94 -742 -92 -2 1 106 28 239 60 254 60 458 96 692
122 77 9 264 34 415 56 338 49 950 136 969 138 8 0 12 -1 10 -3z m-3810 -20
c-11 -11 -171 -57 -186 -54 -10 2 23 15 72 30 87 25 123 33 114 24z m-321 -41
c-21 -21 -402 -104 -415 -91 -6 6 243 69 322 81 102 16 99 16 93 10z m-2867
-30 c0 -5 -22 -13 -48 -17 -26 -4 -66 -9 -88 -13 -58 -9 -36 4 42 25 73 20 94
21 94 5z m3508 11 c-7 -6 -903 -252 -1059 -291 -139 -34 -519 -100 -527 -91
-3 2 11 7 29 11 64 14 406 117 688 207 l285 91 270 37 c267 37 322 44 314 36z
m-3730 -10 c-2 -2 -60 -20 -129 -40 -100 -29 -189 -44 -449 -76 -178 -22 -326
-39 -328 -36 -2 2 26 9 64 15 37 7 237 40 443 75 382 65 406 69 399 62z
m-1182 -42 c-3 -3 -12 -4 -19 -1 -8 3 -5 6 6 6 11 1 17 -2 13 -5z m3623 -40
c-96 -26 -283 -56 -805 -129 -627 -89 -688 -96 -778 -89 -53 4 -100 10 -103
15 -2 4 12 17 33 28 31 15 105 25 378 50 589 55 732 71 1040 115 165 24 314
44 330 44 17 0 -26 -15 -95 -34z m-2271 22 c-9 -9 -777 -198 -858 -212 -47 -7
-86 -12 -88 -11 -1 2 120 41 270 86 239 74 295 87 462 111 212 31 220 32 214
26z m118 -22 c-3 -3 -12 -4 -19 -1 -8 3 -5 6 6 6 11 1 17 -2 13 -5z m-38 -8
c-10 -10 -460 -126 -486 -125 -15 0 82 29 217 64 231 60 279 70 269 61z m2631
-15 c-18 -10 -351 -114 -545 -170 -299 -86 -674 -173 -890 -207 -250 -39 -667
-96 -671 -91 -2 1 68 20 154 41 86 21 312 81 501 132 217 59 387 99 460 109
211 29 458 74 603 111 121 30 359 81 393 83 6 0 3 -3 -5 -8z m-4643 -47 c-3
-3 -12 -4 -19 -1 -8 3 -5 6 6 6 11 1 17 -2 13 -5z m1268 0 c-23 -9 -416 -126
-500 -149 -76 -21 -762 -121 -771 -113 -5 5 379 137 461 158 107 28 861 125
810 104z m-1390 -20 c-44 -8 -89 -13 -100 -11 -25 4 97 24 145 25 19 0 -1 -7
-45 -14z m-132 -21 c-7 -2 -21 -2 -30 0 -10 3 -4 5 12 5 17 0 24 -2 18 -5z
m2827 -2 c-15 -9 -255 -32 -300 -30 -24 2 240 36 290 37 18 1 21 -1 10 -7z
m5319 5 c-5 -6 -267 -72 -839 -212 l-425 -104 -580 -80 c-547 -76 -680 -93
-645 -83 22 6 2462 481 2479 482 8 1 12 -1 10 -3z m-5671 -43 c-10 -2 -28 -2
-40 0 -13 2 -5 4 17 4 22 1 32 -1 23 -4z m5217 0 c-42 -10 -2742 -531 -2780
-536 -27 -4 -33 -3 -20 3 18 8 1541 373 1610 386 61 11 1151 152 1180 152 20
0 23 -2 10 -5z m-4971 -34 c-22 -24 -11 -50 27 -60 13 -4 20 -8 14 -8 -5 -1
-89 -15 -185 -32 -162 -28 -203 -31 -550 -40 -206 -5 -424 -8 -485 -7 l-109 3
304 49 c241 39 753 99 984 115 19 1 19 1 0 -20z m3879 14 c-7 -2 -21 -2 -30 0
-10 3 -4 5 12 5 17 0 24 -2 18 -5z m2436 2 c-4 -4 -1081 -266 -1269 -308 -36
-8 -112 -22 -170 -31 -225 -34 -1535 -206 -1550 -204 -13 3 574 151 1040 263
106 25 382 67 1025 155 484 66 885 123 890 125 15 5 39 6 34 0z m-2499 -11
c-107 -26 -1967 -300 -1976 -291 -2 2 105 29 238 61 229 55 272 61 812 127
314 38 636 78 716 88 127 16 253 25 210 15z m110 -40 c-74 -18 -182 -40 -240
-48 -58 -9 -447 -65 -865 -126 -1137 -166 -1587 -230 -1604 -229 -62 4 248 55
949 154 448 63 1047 153 1330 199 283 46 526 84 540 84 14 0 -36 -15 -110 -34z
m-4720 10 c-8 -2 -130 -22 -270 -44 -140 -22 -266 -42 -280 -45 -19 -4 -21 -3
-10 4 17 11 125 31 355 66 137 20 253 31 205 19z m7027 -30 c-3 -3 -12 -4 -19
-1 -8 3 -5 6 6 6 11 1 17 -2 13 -5z m-5572 -55 c-346 -98 -981 -247 -1115
-262 -118 -14 -698 -32 -688 -21 9 8 972 188 1313 245 364 60 481 75 580 77
44 1 32 -4 -90 -39z m1620 29 c-27 -5 -196 -38 -375 -73 -325 -64 -557 -101
-568 -91 -3 4 -1 6 5 6 5 0 160 30 344 66 311 61 560 102 619 102 14 0 3 -5
-25 -10z m-3890 -64 c-22 -8 -60 -13 -85 -12 l-45 3 65 11 c91 16 112 15 65
-2z m1410 -25 c-22 -4 -301 -58 -619 -119 l-580 -110 -148 2 -148 3 665 109
c674 111 758 123 830 124 l40 0 -40 -9z m-577 -14 c-2 -3 -220 -34 -484 -70
-263 -35 -575 -78 -693 -95 -118 -16 -216 -29 -217 -27 -2 2 117 43 264 92
l267 89 360 6 c198 3 393 7 434 8 41 1 72 0 69 -3z m4077 -1 c-12 -4 -1456
-349 -1500 -358 -54 -10 -1699 -187 -1715 -184 -8 2 138 43 325 91 l340 88
655 94 c848 122 1821 264 1840 269 20 5 68 6 55 0z m-5265 -29 c-36 -8 -87
-16 -115 -19 l-50 -5 65 18 c36 11 88 19 115 19 l50 0 -65 -13z m-640 -4 c-40
-12 -126 -24 -118 -16 10 11 68 23 108 23 31 0 32 -1 10 -7z m4429 -25 c-2 -2
-111 -29 -241 -60 -180 -43 -329 -70 -619 -111 -211 -30 -390 -55 -398 -54
-37 2 478 102 769 149 173 28 349 57 390 64 83 15 105 18 99 12z m-3800 -20
c-2 -2 -91 -33 -197 -70 l-193 -66 -177 1 -177 1 70 19 c111 31 691 130 674
115z m7566 -2 c-5 -2 -408 -100 -895 -218 -741 -180 -1412 -327 -1425 -314 -2
2 398 106 888 231 828 212 910 232 1142 267 228 34 317 45 290 34z m-5260 -59
c-52 -20 -251 -55 -309 -54 -67 1 -61 3 99 29 154 25 237 35 210 25z m90 -29
c-70 -22 -101 -28 -90 -18 10 10 86 30 115 30 8 0 -3 -6 -25 -12z m3304 10
c-6 -6 -310 -78 -869 -205 l-485 -111 -779 -105 c-429 -57 -781 -103 -783
-102 -1 2 111 36 250 76 203 60 339 91 702 161 282 55 532 98 670 114 121 15
454 60 740 100 528 75 562 79 554 72z m-5606 -43 c-7 -2 -21 -2 -30 0 -10 3
-4 5 12 5 17 0 24 -2 18 -5z m7917 -50 c-151 -50 -186 -57 -411 -88 -326 -45
-401 -52 -679 -70 -385 -24 -444 -33 -934 -131 -258 -52 -471 -92 -473 -90 -5
4 123 41 227 65 47 11 265 55 485 97 339 65 514 92 1145 174 410 54 759 98
775 98 17 0 -41 -24 -135 -55z m-7982 40 c-10 -2 -26 -2 -35 0 -10 3 -2 5 17
5 19 0 27 -2 18 -5z m2547 -19 c-5 -2 -192 -39 -415 -83 -361 -70 -542 -99
-527 -84 9 8 275 63 387 79 58 8 200 32 315 53 191 35 267 46 240 35z m-716
-8 c-2 -2 -186 -45 -409 -96 -223 -50 -416 -94 -430 -97 -59 -14 3 17 120 60
163 59 354 115 427 126 60 9 300 14 292 7z m191 -26 c-115 -24 -306 -49 -260
-34 72 23 278 62 330 62 64 0 62 -1 -70 -28z m-2342 5 c-6 -6 -166 -35 -188
-34 -23 1 30 20 80 29 54 9 115 12 108 5z m3107 -41 c-78 -22 -740 -114 -814
-113 -46 1 58 18 344 59 226 33 419 61 430 63 11 2 36 4 55 5 33 0 31 -1 -15
-14z m-1735 -53 c-69 -26 -143 -55 -165 -65 -32 -14 -93 -19 -318 -27 -153 -6
-283 -9 -289 -7 -14 5 823 146 867 147 19 0 -15 -17 -95 -48z m5095 44 c-5 -2
-430 -101 -944 -220 -915 -212 -940 -217 -1209 -251 -152 -19 -277 -32 -279
-31 -2 2 126 43 284 90 l288 86 840 150 c462 83 872 157 910 165 64 13 133 19
110 11z m-5350 -11 c-31 -12 -871 -144 -911 -143 -31 1 59 20 236 50 368 63
722 112 675 93z m5000 -5 c-113 -24 -1110 -199 -1118 -196 -5 1 62 24 149 50
143 42 198 52 554 101 375 51 512 66 415 45z m-720 -30 c-85 -27 -241 -56
-250 -47 -5 5 292 75 320 76 11 0 -20 -13 -70 -29z m-3589 -14 c-26 -20 -250
-65 -232 -47 6 6 213 58 241 60 6 1 1 -5 -9 -13z m6014 -36 c-30 -11 -140 -45
-245 -75 l-190 -55 -635 -75 c-540 -63 -713 -88 -1159 -165 -288 -49 -525 -88
-527 -86 -2 2 72 26 164 55 128 39 324 82 847 186 374 74 723 140 775 145 52
6 214 18 359 27 145 9 343 27 440 39 222 28 241 29 171 4z m-5195 -19 c-11 -5
-27 -9 -35 -9 -13 -1 -13 0 0 9 8 5 24 9 35 9 l20 0 -20 -9z m-1129 -80 c-132
-27 -242 -48 -244 -46 -2 2 56 18 130 35 73 17 160 38 193 45 33 8 83 14 110
15 33 0 -30 -16 -189 -49z m523 46 c-5 -5 -215 -36 -237 -35 -33 2 143 37 192
38 27 1 47 -1 45 -3z m460 -1 c-3 -2 -111 -31 -240 -65 -172 -44 -273 -64
-379 -75 -108 -12 -1095 -164 -1425 -220 -18 -3 10 15 68 45 92 48 114 54 320
96 122 24 278 51 347 60 69 8 346 46 615 84 270 38 504 70 520 73 43 6 179 8
174 2z m-1090 -9 c-2 -2 -42 -14 -89 -26 -47 -12 -137 -42 -200 -66 -100 -39
-296 -91 -307 -81 -1 2 50 27 114 55 105 45 181 67 408 115 27 6 79 8 74 3z
m3626 -2 c-5 -2 -107 -32 -225 -68 -198 -59 -270 -74 -895 -185 -432 -78 -797
-149 -1000 -196 -207 -48 -378 -82 -485 -95 -91 -11 -181 -23 -200 -25 -136
-19 128 39 957 210 521 108 1067 223 1213 256 146 33 339 71 430 84 155 22
228 29 205 19z m-890 -119 c-5 -3 -435 -92 -955 -200 -673 -139 -1001 -211
-1140 -251 -313 -90 -385 -104 -535 -104 l-130 1 410 103 c226 57 545 143 709
191 l300 87 645 88 c583 79 727 96 696 85z m1205 -29 c0 -7 -300 -78 -313 -73
-6 2 33 14 88 26 55 13 123 29 150 36 54 14 75 17 75 11z m1715 -11 c-27 -7
-214 -39 -415 -69 -201 -31 -401 -63 -445 -71 -356 -65 -1014 -149 -1130 -144
-11 0 223 43 520 95 412 72 646 107 990 148 248 29 468 54 490 54 l40 0 -50
-13z m-3946 1 c-2 -2 -76 -24 -164 -49 -130 -38 -210 -53 -424 -82 -145 -20
-265 -35 -267 -33 -2 2 133 30 299 62 166 32 352 68 412 81 106 22 153 29 144
21z m2401 -52 c-58 -19 -293 -72 -525 -119 -231 -47 -517 -109 -635 -139 -192
-48 -333 -76 -320 -63 3 3 244 66 536 141 417 107 563 141 685 156 85 12 195
29 244 39 130 27 133 24 15 -15z m2225 21 c-21 -8 -1733 -303 -1785 -308 -91
-9 -31 9 200 58 118 25 258 57 311 72 128 34 1344 204 1274 178z m-3540 -60
c-5 -3 -100 -32 -210 -65 -197 -59 -206 -61 -555 -105 -195 -24 -373 -47 -395
-51 -71 -11 -32 4 65 26 124 28 1047 197 1080 198 14 0 21 -1 15 -3z m2463
-21 c-18 -18 -473 -93 -486 -80 -5 6 12 9 268 50 246 40 225 37 218 30z
m-1909 -28 c-7 -7 -751 -197 -755 -193 -4 4 422 133 511 154 92 22 253 48 244
39z m-2260 -40 c-13 -12 -453 -130 -841 -226 l-447 -110 -126 0 c-103 0 -148
5 -234 26 -58 14 -112 29 -119 33 -7 4 60 20 150 35 90 14 260 45 378 68 118
22 436 71 705 108 481 66 543 74 534 66z m1786 -22 c-5 -2 -158 -49 -340 -105
-307 -94 -340 -101 -470 -114 -186 -18 -302 -26 -290 -20 6 3 138 44 295 91
275 83 293 87 530 119 237 32 296 38 275 29z m683 -19 c-15 -15 -278 -85 -373
-99 -166 -25 -182 -26 -165 -17 16 9 170 46 380 90 144 30 166 34 158 26z
m1187 -20 c-26 -10 -348 -76 -352 -72 -8 9 183 66 232 70 74 5 131 6 120 2z
m1287 -11 c-18 -8 -72 -26 -120 -41 -83 -26 -99 -27 -347 -31 -143 -2 -257 -1
-254 3 4 3 139 19 300 36 162 16 323 34 359 38 92 12 99 11 62 -5z m-1653 -18
c-18 -19 -245 -88 -299 -92 -175 -12 -552 -34 -582 -33 -43 1 609 106 732 117
118 11 155 13 149 8z m-2284 -32 c-5 -2 -130 -40 -277 -83 l-267 -80 -303 -25
c-322 -27 -534 -37 -521 -26 5 4 112 31 238 60 188 42 306 61 650 105 381 48
508 61 480 49z m1422 -40 c-3 -3 -12 -4 -19 -1 -8 3 -5 6 6 6 11 1 17 -2 13
-5z m-47 -10 c-38 -9 -344 -54 -347 -50 -7 7 123 39 187 46 68 8 186 10 160 4z
m2095 -12 c-6 -5 -183 -42 -395 -82 l-385 -73 -387 -1 c-213 -1 -384 2 -380 6
6 5 880 142 972 151 74 8 584 7 575 -1z m-1237 -27 c-16 -16 -441 -107 -490
-104 -44 1 324 93 412 102 62 7 83 7 78 2z m-1350 -10 c-2 -3 -40 -16 -84 -29
-72 -21 -418 -65 -429 -54 -2 2 91 19 208 37 117 18 228 36 247 41 42 10 65
12 58 5z m960 -11 c-4 -3 -111 -28 -240 -56 l-233 -49 -353 -2 c-193 -1 -352
1 -352 4 0 13 121 29 370 49 199 16 662 51 794 59 11 0 17 -2 14 -5z m-1460
-20 c-8 -7 -276 -54 -303 -53 -18 1 98 28 205 48 55 10 105 13 98 5z m2851
-28 c-4 -4 -209 -50 -274 -61 -22 -4 -36 -3 -32 1 4 5 67 20 140 35 129 26
175 33 166 25z m-4689 -31 c-103 -24 -190 -36 -190 -26 0 8 211 48 255 49 17
0 -13 -10 -65 -23z m1338 20 c-14 -15 -227 -45 -331 -47 -130 -3 -157 7 -44
17 39 3 133 12 207 19 169 17 174 17 168 11z m165 -22 c-7 -2 -19 -2 -25 0 -7
3 -2 5 12 5 14 0 19 -2 13 -5z m304 1 c-3 -3 -12 -4 -19 -1 -8 3 -5 6 6 6 11
1 17 -2 13 -5z m-2493 -74 c-19 -7 -233 -43 -321 -53 -62 -7 -33 8 65 35 70
19 122 26 187 26 59 1 83 -2 69 -8z m351 0 c-11 -5 -33 -9 -50 -9 -26 0 -27 2
-10 9 11 5 34 9 50 9 26 0 27 -2 10 -9z m1170 0 c-26 -12 -296 -62 -302 -57
-10 10 216 66 267 66 40 0 50 -3 35 -9z m970 1 c-9 -8 -831 -263 -885 -275
-14 -3 -101 -14 -195 -25 -93 -12 -188 -24 -210 -27 -22 -3 -38 -4 -35 -1 5 5
794 261 840 272 48 11 415 63 455 64 22 1 35 -3 30 -8z m779 1 c-20 -18 -391
-87 -849 -158 -264 -41 -493 -77 -510 -80 -84 -18 18 18 366 126 l384 119 309
0 c171 1 306 -3 300 -7z m1313 2 c-16 -17 -698 -137 -930 -164 -141 -17 -384
-46 -539 -65 -156 -18 -284 -32 -286 -30 -6 6 101 34 575 150 l468 114 359 0
c198 1 357 -2 353 -5z m270 0 c-8 -8 -143 -33 -172 -32 -11 0 18 8 65 18 96
20 116 23 107 14z m313 -4 c-14 -4 -45 -8 -70 -8 -40 0 -42 1 -15 8 17 4 48 8
70 8 34 0 36 -1 15 -8z m-2050 -121 c-85 -27 -281 -80 -435 -119 -267 -66
-297 -71 -634 -110 -194 -22 -357 -40 -362 -38 -15 5 1223 267 1381 292 213
35 222 30 50 -25z m883 -46 c-7 -2 -21 -2 -30 0 -10 3 -4 5 12 5 17 0 24 -2
18 -5z m-88 -14 c-51 -10 -92 -10 -50 1 17 4 44 8 60 8 25 0 24 -2 -10 -9z
m-98 -15 c-3 -3 -12 -4 -19 -1 -8 3 -5 6 6 6 11 1 17 -2 13 -5z m-1672 -49
c-5 -2 -221 -49 -480 -104 -438 -92 -622 -127 -630 -119 -11 10 577 151 705
169 80 11 195 28 255 38 100 17 175 25 150 16z m1010 -21 c-19 -7 -738 -125
-741 -121 -3 2 37 17 88 32 66 20 169 38 353 61 247 30 322 37 300 28z m1435
-84 c-14 -5 -270 -80 -570 -167 l-545 -158 -410 -2 c-230 -2 -403 1 -395 6 8
4 94 23 190 41 219 42 1696 287 1730 288 l25 0 -25 -8z m-2429 -71 c-59 -21
-190 -50 -218 -48 -22 1 224 67 252 67 11 0 -4 -8 -34 -19z m-636 -201 c-71
-24 -113 -31 -200 -35 -60 -3 -107 -2 -103 2 7 8 328 63 368 63 14 0 -15 -13
-65 -30z m3200 -34 c-22 -8 -98 -24 -170 -35 -71 -11 -188 -33 -260 -48 -145
-32 -223 -46 -215 -38 3 3 73 24 155 46 138 37 427 89 500 89 29 1 28 0 -10
-14z m-1060 -59 c-21 -8 -457 -77 -461 -72 -4 4 218 63 266 70 33 5 208 7 195
2z m75 -41 c-8 -2 -199 -35 -425 -74 -225 -39 -482 -86 -570 -105 -223 -48
-272 -52 -130 -11 80 24 274 61 580 111 253 42 467 77 475 79 8 2 31 4 50 4
19 0 28 -2 20 -4z m180 -18 c0 -18 -620 -119 -636 -103 -4 4 572 104 614 106
12 1 22 -1 22 -3z m310 -42 c-42 -14 -187 -30 -165 -19 21 10 141 33 175 33
l35 0 -45 -14z m-355 -116 c-316 -104 -656 -184 -1538 -364 -147 -30 -273 -54
-280 -54 -7 1 96 35 228 76 163 50 436 121 853 220 574 136 700 161 812 162
40 0 33 -4 -75 -40z m-1615 -68 c-63 -18 -458 -75 -466 -67 -5 5 470 84 506
85 14 0 -4 -8 -40 -18z m-70 -70 c-77 -24 -413 -111 -416 -107 -5 5 396 115
421 115 16 0 15 -1 -5 -8z m-433 -116 c-3 -3 -12 -4 -19 -1 -8 3 -5 6 6 6 11
1 17 -2 13 -5z m831 -340 c-14 -14 -731 -119 -766 -112 -18 3 692 116 742 117
16 1 27 -2 24 -5z m-795 -121 c-7 -2 -21 -2 -30 0 -10 3 -4 5 12 5 17 0 24 -2
18 -5z"/>
<path d="M9025 10563 c-11 -2 -146 -33 -300 -68 -154 -35 -318 -71 -365 -79
-83 -15 -185 -51 -265 -95 -22 -12 -31 -19 -20 -17 157 39 399 82 564 101 113
13 277 36 363 50 184 29 204 30 123 4 -33 -11 -152 -31 -264 -44 -367 -45
-819 -122 -880 -151 -29 -14 -52 -26 -50 -28 4 -3 277 22 428 39 30 3 53 3 50
0 -11 -10 -385 -83 -493 -95 l-110 -13 -100 -68 c-114 -77 -235 -170 -236
-182 0 -4 10 -5 23 -2 52 12 1050 156 1060 152 5 -1 -35 -13 -89 -24 -54 -12
-202 -44 -329 -72 -151 -32 -317 -60 -485 -81 -215 -26 -258 -34 -275 -50 -19
-20 -19 -20 5 -21 20 -1 17 -3 -11 -11 -21 -5 -48 -21 -60 -35 l-24 -25 25 6
c14 4 153 34 310 67 279 59 310 63 1529 210 685 82 1265 153 1290 157 l46 8
-30 16 c-16 8 -34 14 -40 12 -18 -6 -2019 -244 -2027 -242 -5 2 166 43 380 91
430 97 508 108 1177 161 176 15 340 29 365 32 l45 6 -32 16 c-29 14 -63 13
-409 -16 -208 -18 -379 -30 -381 -29 -1 2 124 32 280 66 155 35 289 65 297 68
20 7 -146 72 -186 72 -17 1 -85 -10 -150 -23 -128 -26 -447 -70 -464 -64 -6 2
106 25 247 51 320 60 307 57 263 72 -30 11 -53 9 -150 -10 -63 -12 -117 -21
-119 -19 -12 10 19 24 79 35 39 7 70 16 70 20 0 4 -21 11 -46 15 -35 5 -77 0
-166 -21 -65 -15 -121 -26 -123 -23 -3 3 38 15 90 28 57 15 91 28 86 33 -5 5
-52 10 -104 11 -53 0 -93 4 -91 8 5 8 -286 9 -321 1z m293 -20 c-10 -2 -26 -2
-35 0 -10 3 -2 5 17 5 19 0 27 -2 18 -5z m-65 -10 c-7 -2 -21 -2 -30 0 -10 3
-4 5 12 5 17 0 24 -2 18 -5z m-60 -10 c-7 -2 -21 -2 -30 0 -10 3 -4 5 12 5 17
0 24 -2 18 -5z m-70 -10 c-7 -2 -19 -2 -25 0 -7 3 -2 5 12 5 14 0 19 -2 13 -5z
m-60 -10 c-7 -2 -19 -2 -25 0 -7 3 -2 5 12 5 14 0 19 -2 13 -5z m-66 -9 c-3
-3 -12 -4 -19 -1 -8 3 -5 6 6 6 11 1 17 -2 13 -5z m-60 -10 c-3 -3 -12 -4 -19
-1 -8 3 -5 6 6 6 11 1 17 -2 13 -5z m1086 -81 c-7 -2 -19 -2 -25 0 -7 3 -2 5
12 5 14 0 19 -2 13 -5z m-328 -54 c-159 -27 -297 -47 -305 -46 -20 4 234 53
395 76 252 37 197 18 -90 -30z m-962 4 c-7 -2 -19 -2 -25 0 -7 3 -2 5 12 5 14
0 19 -2 13 -5z m554 1 c-3 -3 -12 -4 -19 -1 -8 3 -5 6 6 6 11 1 17 -2 13 -5z
m76 -61 c-7 -2 -19 -2 -25 0 -7 3 -2 5 12 5 14 0 19 -2 13 -5z m-338 -18 c-24
-9 -368 -76 -371 -72 -7 6 164 50 246 63 72 11 146 16 125 9z m320 -30 c-57
-23 -976 -170 -1014 -163 -8 2 208 40 480 84 441 73 566 91 534 79z m-1020
-91 c-177 -50 -393 -99 -402 -91 -4 5 452 135 492 140 104 14 77 -1 -90 -49z
m-22 -81 c-7 -2 -21 -2 -30 0 -10 3 -4 5 12 5 17 0 24 -2 18 -5z"/>
<path d="M7380 2665 c-69 -13 -327 -78 -575 -145 -347 -93 -502 -130 -679
-160 -126 -22 -231 -42 -234 -45 -3 -3 7 -19 24 -35 l29 -30 190 51 c133 35
305 70 569 115 209 35 381 62 383 60 2 -1 -36 -13 -84 -26 -49 -12 -225 -70
-393 -127 -168 -57 -365 -125 -438 -150 l-132 -45 49 -61 c41 -53 53 -62 78
-60 581 50 809 75 821 91 7 10 9 18 3 20 -5 2 -134 -8 -287 -23 -152 -14 -278
-24 -280 -22 -2 2 139 27 314 56 290 49 319 56 340 78 13 14 21 27 19 30 -6 5
-267 -29 -552 -72 -126 -19 -239 -35 -250 -34 -38 0 868 318 944 331 74 12 75
13 142 83 37 38 66 71 65 73 -2 1 -23 -9 -47 -22 -24 -14 -75 -32 -114 -40
-103 -23 -436 -77 -448 -73 -14 4 483 133 569 147 54 9 78 18 95 36 12 13 18
24 13 23 -5 0 -65 -11 -134 -24z"/>
<path d="M6928 2055 c-2 -3 -164 -36 -358 -75 -195 -39 -356 -72 -357 -74 -2
-1 3 -10 10 -18 11 -14 47 -9 350 52 324 65 377 81 377 112 0 9 -14 11 -22 3z"/>
<path d="M6760 1960 c-63 -15 -178 -44 -255 -64 -77 -20 -166 -40 -198 -44
l-57 -7 24 -36 25 -36 98 18 c167 31 185 23 51 -22 -88 -30 -116 -44 -111 -55
8 -22 26 -18 200 41 90 30 178 55 197 55 29 0 39 7 69 47 20 27 34 49 32 51
-1 2 -42 -4 -90 -13 -48 -9 -89 -14 -91 -12 -3 3 12 8 33 11 136 25 173 38
194 67 25 35 26 35 -121 -1z m-123 -86 c-3 -3 -12 -4 -19 -1 -8 3 -5 6 6 6 11
1 17 -2 13 -5z"/>
<path d="M6745 1795 c-5 -2 -93 -27 -195 -55 -102 -29 -186 -53 -188 -55 -2
-2 1 -13 8 -24 9 -18 20 -21 88 -22 67 0 73 -2 47 -11 -16 -6 -45 -17 -63 -24
l-33 -13 16 -32 c15 -27 20 -30 48 -25 18 3 56 8 85 12 38 5 56 12 63 26 14
26 11 28 -41 18 -85 -17 -85 -9 -1 23 47 18 90 41 97 52 14 21 12 21 -84 18
l-97 -2 65 20 c159 49 174 55 188 77 8 12 13 22 11 21 -2 0 -8 -2 -14 -4z"/>
<path d="M6495 1439 c-8 -12 14 -69 26 -69 5 0 9 2 9 4 0 2 7 20 15 40 l15 36
-29 0 c-17 0 -33 -5 -36 -11z"/>
</g>
</svg>
